<?xml version="1.0" encoding="UTF-8" standalone="no"?>
<!DOCTYPE svg PUBLIC "-//W3C//DTD SVG 1.1//EN"
 "http://www.w3.org/Graphics/SVG/1.1/DTD/svg11.dtd">
<!-- Generated by graphviz version 13.1.0 (20250701.0955)
 -->
<!-- Title: src/driver_st7920.h Pages: 1 -->
<svg width="500pt" height="232pt"
 viewBox="0.00 0.00 500.00 232.00" xmlns="http://www.w3.org/2000/svg" xmlns:xlink="http://www.w3.org/1999/xlink">
<g id="graph0" class="graph" transform="scale(1 1) rotate(0) translate(4 228)">
<title>src/driver_st7920.h</title>
<!-- Node1 -->
<g id="Node000001" class="node">
<title>Node1</title>
<g id="a_Node000001"><a xlink:title="driver st7920 header file">
<polygon fill="#999999" stroke="#666666" points="366.75,-224 267.5,-224 267.5,-204 366.75,-204 366.75,-224"/>
<text xml:space="preserve" text-anchor="middle" x="317.12" y="-210.5" font-family="Helvetica,sans-Serif" font-size="10.00">src/driver_st7920.h</text>
</a>
</g>
</g>
<!-- Node2 -->
<g id="Node000002" class="node">
<title>Node2</title>
<g id="a_Node000002"><a xlink:href="driver__st7920__interface_8h.html" target="_top" xlink:title="driver st7920 interface header file">
<polygon fill="white" stroke="#666666" points="312.62,-168 197.62,-168 197.62,-136 312.62,-136 312.62,-168"/>
<text xml:space="preserve" text-anchor="start" x="205.62" y="-154.5" font-family="Helvetica,sans-Serif" font-size="10.00">interface/driver_st7920</text>
<text xml:space="preserve" text-anchor="middle" x="255.12" y="-142.5" font-family="Helvetica,sans-Serif" font-size="10.00">_interface.h</text>
</a>
</g>
</g>
<!-- Node1&#45;&gt;Node2 -->
<g id="edge1_Node000001_Node000002" class="edge">
<title>Node1&#45;&gt;Node2</title>
<g id="a_edge1_Node000001_Node000002"><a xlink:title=" ">
<path fill="none" stroke="#63b8ff" d="M299.19,-195.65C290.2,-186.95 279.42,-176.51 270.77,-168.14"/>
<polygon fill="#63b8ff" stroke="#63b8ff" points="296.73,-198.13 306.35,-202.57 301.6,-193.1 296.73,-198.13"/>
</a>
</g>
</g>
<!-- Node10 -->
<g id="Node000010" class="node">
<title>Node10</title>
<g id="a_Node000010"><a xlink:href="driver__st7920_8c.html" target="_top" xlink:title="driver st7920 source file">
<polygon fill="white" stroke="#666666" points="429.75,-162 330.5,-162 330.5,-142 429.75,-142 429.75,-162"/>
<text xml:space="preserve" text-anchor="middle" x="380.12" y="-148.5" font-family="Helvetica,sans-Serif" font-size="10.00">src/driver_st7920.c</text>
</a>
</g>
</g>
<!-- Node1&#45;&gt;Node10 -->
<g id="edge9_Node000001_Node000010" class="edge">
<title>Node1&#45;&gt;Node10</title>
<g id="a_edge9_Node000001_Node000010"><a xlink:title=" ">
<path fill="none" stroke="#63b8ff" d="M335.08,-195.9C346.62,-184.91 361.17,-171.05 370.56,-162.11"/>
<polygon fill="#63b8ff" stroke="#63b8ff" points="332.89,-193.15 328.06,-202.58 337.72,-198.22 332.89,-193.15"/>
</a>
</g>
</g>
<!-- Node3 -->
<g id="Node000003" class="node">
<title>Node3</title>
<g id="a_Node000003"><a xlink:href="driver__st7920__advance_8h.html" target="_top" xlink:title="driver st7920 advance header file">
<polygon fill="white" stroke="#666666" points="114.25,-100 0,-100 0,-68 114.25,-68 114.25,-100"/>
<text xml:space="preserve" text-anchor="start" x="8" y="-86.5" font-family="Helvetica,sans-Serif" font-size="10.00">example/driver_st7920</text>
<text xml:space="preserve" text-anchor="middle" x="57.12" y="-74.5" font-family="Helvetica,sans-Serif" font-size="10.00">_advance.h</text>
</a>
</g>
</g>
<!-- Node2&#45;&gt;Node3 -->
<g id="edge2_Node000002_Node000003" class="edge">
<title>Node2&#45;&gt;Node3</title>
<g id="a_edge2_Node000002_Node000003"><a xlink:title=" ">
<path fill="none" stroke="#63b8ff" d="M197.98,-131.95C168.02,-121.97 131.81,-109.89 103.6,-100.49"/>
<polygon fill="#63b8ff" stroke="#63b8ff" points="196.67,-135.21 207.27,-135.05 198.89,-128.56 196.67,-135.21"/>
</a>
</g>
</g>
<!-- Node5 -->
<g id="Node000005" class="node">
<title>Node5</title>
<g id="a_Node000005"><a xlink:href="driver__st7920__basic_8h.html" target="_top" xlink:title="driver st7920 basic header file">
<polygon fill="white" stroke="#666666" points="246.25,-100 132,-100 132,-68 246.25,-68 246.25,-100"/>
<text xml:space="preserve" text-anchor="start" x="140" y="-86.5" font-family="Helvetica,sans-Serif" font-size="10.00">example/driver_st7920</text>
<text xml:space="preserve" text-anchor="middle" x="189.12" y="-74.5" font-family="Helvetica,sans-Serif" font-size="10.00">_basic.h</text>
</a>
</g>
</g>
<!-- Node2&#45;&gt;Node5 -->
<g id="edge4_Node000002_Node000005" class="edge">
<title>Node2&#45;&gt;Node5</title>
<g id="a_edge4_Node000002_Node000005"><a xlink:title=" ">
<path fill="none" stroke="#63b8ff" d="M231.83,-127.71C222.71,-118.59 212.5,-108.37 204.35,-100.22"/>
<polygon fill="#63b8ff" stroke="#63b8ff" points="229.2,-130.03 238.75,-134.62 234.15,-125.08 229.2,-130.03"/>
</a>
</g>
</g>
<!-- Node7 -->
<g id="Node000007" class="node">
<title>Node7</title>
<g id="a_Node000007"><a xlink:href="driver__st7920__interface__template_8c.html" target="_top" xlink:title="driver st7920 interface template source file">
<polygon fill="white" stroke="#666666" points="379.62,-100 264.62,-100 264.62,-68 379.62,-68 379.62,-100"/>
<text xml:space="preserve" text-anchor="start" x="272.62" y="-86.5" font-family="Helvetica,sans-Serif" font-size="10.00">interface/driver_st7920</text>
<text xml:space="preserve" text-anchor="middle" x="322.12" y="-74.5" font-family="Helvetica,sans-Serif" font-size="10.00">_interface_template.c</text>
</a>
</g>
</g>
<!-- Node2&#45;&gt;Node7 -->
<g id="edge6_Node000002_Node000007" class="edge">
<title>Node2&#45;&gt;Node7</title>
<g id="a_edge6_Node000002_Node000007"><a xlink:title=" ">
<path fill="none" stroke="#63b8ff" d="M278.77,-127.71C288.03,-118.59 298.4,-108.37 306.67,-100.22"/>
<polygon fill="#63b8ff" stroke="#63b8ff" points="276.41,-125.12 271.74,-134.63 281.32,-130.11 276.41,-125.12"/>
</a>
</g>
</g>
<!-- Node8 -->
<g id="Node000008" class="node">
<title>Node8</title>
<g id="a_Node000008"><a xlink:href="driver__st7920__display__test_8h.html" target="_top" xlink:title="driver st7920 display test header file">
<polygon fill="white" stroke="#666666" points="492.12,-100 398.12,-100 398.12,-68 492.12,-68 492.12,-100"/>
<text xml:space="preserve" text-anchor="start" x="406.12" y="-86.5" font-family="Helvetica,sans-Serif" font-size="10.00">test/driver_st7920</text>
<text xml:space="preserve" text-anchor="middle" x="445.12" y="-74.5" font-family="Helvetica,sans-Serif" font-size="10.00">_display_test.h</text>
</a>
</g>
</g>
<!-- Node2&#45;&gt;Node8 -->
<g id="edge7_Node000002_Node000008" class="edge">
<title>Node2&#45;&gt;Node8</title>
<g id="a_edge7_Node000002_Node000008"><a xlink:title=" ">
<path fill="none" stroke="#63b8ff" d="M310.34,-131.82C339.01,-121.86 373.58,-109.85 400.53,-100.49"/>
<polygon fill="#63b8ff" stroke="#63b8ff" points="309.4,-128.44 301.1,-135.03 311.7,-135.05 309.4,-128.44"/>
</a>
</g>
</g>
<!-- Node4 -->
<g id="Node000004" class="node">
<title>Node4</title>
<g id="a_Node000004"><a xlink:href="driver__st7920__advance_8c.html" target="_top" xlink:title="driver st7920 advance source file">
<polygon fill="white" stroke="#666666" points="114.25,-32 0,-32 0,0 114.25,0 114.25,-32"/>
<text xml:space="preserve" text-anchor="start" x="8" y="-18.5" font-family="Helvetica,sans-Serif" font-size="10.00">example/driver_st7920</text>
<text xml:space="preserve" text-anchor="middle" x="57.12" y="-6.5" font-family="Helvetica,sans-Serif" font-size="10.00">_advance.c</text>
</a>
</g>
</g>
<!-- Node3&#45;&gt;Node4 -->
<g id="edge3_Node000003_Node000004" class="edge">
<title>Node3&#45;&gt;Node4</title>
<g id="a_edge3_Node000003_Node000004"><a xlink:title=" ">
<path fill="none" stroke="#63b8ff" d="M57.12,-56.31C57.12,-48.12 57.12,-39.38 57.12,-32.22"/>
<polygon fill="#63b8ff" stroke="#63b8ff" points="53.63,-56.18 57.13,-66.18 60.63,-56.18 53.63,-56.18"/>
</a>
</g>
</g>
<!-- Node6 -->
<g id="Node000006" class="node">
<title>Node6</title>
<g id="a_Node000006"><a xlink:href="driver__st7920__basic_8c.html" target="_top" xlink:title="driver st7920 basic source file">
<polygon fill="white" stroke="#666666" points="246.25,-32 132,-32 132,0 246.25,0 246.25,-32"/>
<text xml:space="preserve" text-anchor="start" x="140" y="-18.5" font-family="Helvetica,sans-Serif" font-size="10.00">example/driver_st7920</text>
<text xml:space="preserve" text-anchor="middle" x="189.12" y="-6.5" font-family="Helvetica,sans-Serif" font-size="10.00">_basic.c</text>
</a>
</g>
</g>
<!-- Node5&#45;&gt;Node6 -->
<g id="edge5_Node000005_Node000006" class="edge">
<title>Node5&#45;&gt;Node6</title>
<g id="a_edge5_Node000005_Node000006"><a xlink:title=" ">
<path fill="none" stroke="#63b8ff" d="M189.12,-56.31C189.12,-48.12 189.12,-39.38 189.12,-32.22"/>
<polygon fill="#63b8ff" stroke="#63b8ff" points="185.63,-56.18 189.13,-66.18 192.63,-56.18 185.63,-56.18"/>
</a>
</g>
</g>
<!-- Node9 -->
<g id="Node000009" class="node">
<title>Node9</title>
<g id="a_Node000009"><a xlink:href="driver__st7920__display__test_8c.html" target="_top" xlink:title="driver st7920 display test source file">
<polygon fill="white" stroke="#666666" points="492.12,-32 398.12,-32 398.12,0 492.12,0 492.12,-32"/>
<text xml:space="preserve" text-anchor="start" x="406.12" y="-18.5" font-family="Helvetica,sans-Serif" font-size="10.00">test/driver_st7920</text>
<text xml:space="preserve" text-anchor="middle" x="445.12" y="-6.5" font-family="Helvetica,sans-Serif" font-size="10.00">_display_test.c</text>
</a>
</g>
</g>
<!-- Node8&#45;&gt;Node9 -->
<g id="edge8_Node000008_Node000009" class="edge">
<title>Node8&#45;&gt;Node9</title>
<g id="a_edge8_Node000008_Node000009"><a xlink:title=" ">
<path fill="none" stroke="#63b8ff" d="M445.12,-56.31C445.12,-48.12 445.12,-39.38 445.12,-32.22"/>
<polygon fill="#63b8ff" stroke="#63b8ff" points="441.63,-56.18 445.13,-66.18 448.63,-56.18 441.63,-56.18"/>
</a>
</g>
</g>
</g>
</svg>
