<?xml version="1.0" encoding="UTF-8" standalone="no"?>
<!DOCTYPE svg PUBLIC "-//W3C//DTD SVG 1.1//EN"
 "http://www.w3.org/Graphics/SVG/1.1/DTD/svg11.dtd">
<!-- Generated by graphviz version 13.1.0 (20250701.0955)
 -->
<!-- Title: st7920_basic_display_off Pages: 1 -->
<svg width="273pt" height="78pt"
 viewBox="0.00 0.00 273.00 78.00" xmlns="http://www.w3.org/2000/svg" xmlns:xlink="http://www.w3.org/1999/xlink">
<g id="graph0" class="graph" transform="scale(1 1) rotate(0) translate(4 74)">
<title>st7920_basic_display_off</title>
<!-- Node1 -->
<g id="Node000001" class="node">
<title>Node1</title>
<g id="a_Node000001"><a xlink:title="basic example display off">
<polygon fill="#999999" stroke="#666666" points="125.5,-42 0,-42 0,-22 125.5,-22 125.5,-42"/>
<text xml:space="preserve" text-anchor="middle" x="62.75" y="-28.5" font-family="Helvetica,sans-Serif" font-size="10.00">st7920_basic_display_off</text>
</a>
</g>
</g>
<!-- Node2 -->
<g id="Node000002" class="node">
<title>Node2</title>
<g id="a_Node000002"><a xlink:href="group__st7920__basic__driver.html#gad5f70a6103e067a0f43a62e9618f2036" target="_top" xlink:title="set the display control">
<polygon fill="white" stroke="#666666" points="263.38,-70 163.38,-70 163.38,-38 263.38,-38 263.38,-70"/>
<text xml:space="preserve" text-anchor="start" x="171.38" y="-56.5" font-family="Helvetica,sans-Serif" font-size="10.00">st7920_set_display</text>
<text xml:space="preserve" text-anchor="middle" x="213.38" y="-44.5" font-family="Helvetica,sans-Serif" font-size="10.00">_control</text>
</a>
</g>
</g>
<!-- Node1&#45;&gt;Node2 -->
<g id="edge1_Node000001_Node000002" class="edge">
<title>Node1&#45;&gt;Node2</title>
<g id="a_edge1_Node000001_Node000002"><a xlink:title=" ">
<path fill="none" stroke="#63b8ff" d="M125.92,-41.2C134.55,-42.48 143.4,-43.79 151.99,-45.06"/>
<polygon fill="#63b8ff" stroke="#63b8ff" points="151.2,-48.48 161.61,-46.49 152.23,-41.56 151.2,-48.48"/>
</a>
</g>
</g>
<!-- Node3 -->
<g id="Node000003" class="node">
<title>Node3</title>
<g id="a_Node000003"><a xlink:href="group__st7920__basic__driver.html#ga0fc13c1c98b78f4f3a4a02f53515f58c" target="_top" xlink:title="set the function">
<polygon fill="white" stroke="#666666" points="265.25,-20 161.5,-20 161.5,0 265.25,0 265.25,-20"/>
<text xml:space="preserve" text-anchor="middle" x="213.38" y="-6.5" font-family="Helvetica,sans-Serif" font-size="10.00">st7920_set_function</text>
</a>
</g>
</g>
<!-- Node1&#45;&gt;Node3 -->
<g id="edge2_Node000001_Node000003" class="edge">
<title>Node1&#45;&gt;Node3</title>
<g id="a_edge2_Node000001_Node000003"><a xlink:title=" ">
<path fill="none" stroke="#63b8ff" d="M125.92,-22.8C133.92,-21.61 142.12,-20.4 150.12,-19.22"/>
<polygon fill="#63b8ff" stroke="#63b8ff" points="150.39,-22.71 159.77,-17.79 149.36,-15.79 150.39,-22.71"/>
</a>
</g>
</g>
</g>
</svg>
