<?xml version="1.0" encoding="UTF-8" standalone="no"?>
<!DOCTYPE svg PUBLIC "-//W3C//DTD SVG 1.1//EN"
 "http://www.w3.org/Graphics/SVG/1.1/DTD/svg11.dtd">
<!-- Generated by graphviz version 13.1.0 (20250701.0955)
 -->
<!-- Title: st7920_advance_enable_scroll Pages: 1 -->
<svg width="274pt" height="90pt"
 viewBox="0.00 0.00 274.00 90.00" xmlns="http://www.w3.org/2000/svg" xmlns:xlink="http://www.w3.org/1999/xlink">
<g id="graph0" class="graph" transform="scale(1 1) rotate(0) translate(4 86)">
<title>st7920_advance_enable_scroll</title>
<!-- Node1 -->
<g id="Node000001" class="node">
<title>Node1</title>
<g id="a_Node000001"><a xlink:title="advance example enable scroll">
<polygon fill="#999999" stroke="#666666" points="121,-57 0,-57 0,-25 121,-25 121,-57"/>
<text xml:space="preserve" text-anchor="start" x="8" y="-43.5" font-family="Helvetica,sans-Serif" font-size="10.00">st7920_advance_enable</text>
<text xml:space="preserve" text-anchor="middle" x="60.5" y="-31.5" font-family="Helvetica,sans-Serif" font-size="10.00">_scroll</text>
</a>
</g>
</g>
<!-- Node2 -->
<g id="Node000002" class="node">
<title>Node2</title>
<g id="a_Node000002"><a xlink:href="group__st7920__extended__driver.html#ga909f2d6844dd6b3d56d2cff64036af76" target="_top" xlink:title="set the extended function">
<polygon fill="white" stroke="#666666" points="266,-82 157,-82 157,-50 266,-50 266,-82"/>
<text xml:space="preserve" text-anchor="start" x="165" y="-68.5" font-family="Helvetica,sans-Serif" font-size="10.00">st7920_set_extended</text>
<text xml:space="preserve" text-anchor="middle" x="211.5" y="-56.5" font-family="Helvetica,sans-Serif" font-size="10.00">_function</text>
</a>
</g>
</g>
<!-- Node1&#45;&gt;Node2 -->
<g id="edge1_Node000001_Node000002" class="edge">
<title>Node1&#45;&gt;Node2</title>
<g id="a_edge1_Node000001_Node000002"><a xlink:title=" ">
<path fill="none" stroke="#63b8ff" d="M121.25,-51.02C129.17,-52.35 137.33,-53.72 145.34,-55.07"/>
<polygon fill="#63b8ff" stroke="#63b8ff" points="144.59,-58.49 155.03,-56.69 145.75,-51.59 144.59,-58.49"/>
</a>
</g>
</g>
<!-- Node3 -->
<g id="Node000003" class="node">
<title>Node3</title>
<g id="a_Node000003"><a xlink:href="group__st7920__extended__driver.html#ga70296c9c4840aa5d1279befb151dedbe" target="_top" xlink:title="set the vertical scroll">
<polygon fill="white" stroke="#666666" points="261.88,-32 161.12,-32 161.12,0 261.88,0 261.88,-32"/>
<text xml:space="preserve" text-anchor="start" x="169.12" y="-18.5" font-family="Helvetica,sans-Serif" font-size="10.00">st7920_set_vertical</text>
<text xml:space="preserve" text-anchor="middle" x="211.5" y="-6.5" font-family="Helvetica,sans-Serif" font-size="10.00">_scroll</text>
</a>
</g>
</g>
<!-- Node1&#45;&gt;Node3 -->
<g id="edge2_Node000001_Node000003" class="edge">
<title>Node1&#45;&gt;Node3</title>
<g id="a_edge2_Node000001_Node000003"><a xlink:title=" ">
<path fill="none" stroke="#63b8ff" d="M121.25,-30.98C130.57,-29.41 140.22,-27.79 149.57,-26.22"/>
<polygon fill="#63b8ff" stroke="#63b8ff" points="150.01,-29.7 159.29,-24.59 148.85,-22.79 150.01,-29.7"/>
</a>
</g>
</g>
</g>
</svg>
