<?xml version="1.0" encoding="UTF-8" standalone="no"?>
<!DOCTYPE svg PUBLIC "-//W3C//DTD SVG 1.1//EN"
 "http://www.w3.org/Graphics/SVG/1.1/DTD/svg11.dtd">
<!-- Generated by graphviz version 13.1.0 (20250701.0955)
 -->
<!-- Title: st7920_advance_string Pages: 1 -->
<svg width="264pt" height="66pt"
 viewBox="0.00 0.00 264.00 66.00" xmlns="http://www.w3.org/2000/svg" xmlns:xlink="http://www.w3.org/1999/xlink">
<g id="graph0" class="graph" transform="scale(1 1) rotate(0) translate(4 62)">
<title>st7920_advance_string</title>
<!-- Node1 -->
<g id="Node000001" class="node">
<title>Node1</title>
<g id="a_Node000001"><a xlink:title="advance example write a string">
<polygon fill="#999999" stroke="#666666" points="116.5,-39 0,-39 0,-19 116.5,-19 116.5,-39"/>
<text xml:space="preserve" text-anchor="middle" x="58.25" y="-25.5" font-family="Helvetica,sans-Serif" font-size="10.00">st7920_advance_string</text>
</a>
</g>
</g>
<!-- Node2 -->
<g id="Node000002" class="node">
<title>Node2</title>
<g id="a_Node000002"><a xlink:href="group__st7920__basic__driver.html#ga0fc13c1c98b78f4f3a4a02f53515f58c" target="_top" xlink:title="set the function">
<polygon fill="white" stroke="#666666" points="256.25,-58 152.5,-58 152.5,-38 256.25,-38 256.25,-58"/>
<text xml:space="preserve" text-anchor="middle" x="204.38" y="-44.5" font-family="Helvetica,sans-Serif" font-size="10.00">st7920_set_function</text>
</a>
</g>
</g>
<!-- Node1&#45;&gt;Node2 -->
<g id="edge1_Node000001_Node000002" class="edge">
<title>Node1&#45;&gt;Node2</title>
<g id="a_edge1_Node000001_Node000002"><a xlink:title=" ">
<path fill="none" stroke="#63b8ff" d="M116.63,-36.56C124.63,-37.62 132.89,-38.71 140.98,-39.77"/>
<polygon fill="#63b8ff" stroke="#63b8ff" points="140.39,-43.23 150.76,-41.06 141.3,-36.29 140.39,-43.23"/>
</a>
</g>
</g>
<!-- Node3 -->
<g id="Node000003" class="node">
<title>Node3</title>
<g id="a_Node000003"><a xlink:href="group__st7920__basic__driver.html#gadd144654f50c3bd75952d22f4a709f1b" target="_top" xlink:title="show a string">
<polygon fill="white" stroke="#666666" points="254.75,-20 154,-20 154,0 254.75,0 254.75,-20"/>
<text xml:space="preserve" text-anchor="middle" x="204.38" y="-6.5" font-family="Helvetica,sans-Serif" font-size="10.00">st7920_write_string</text>
</a>
</g>
</g>
<!-- Node1&#45;&gt;Node3 -->
<g id="edge2_Node000001_Node000003" class="edge">
<title>Node1&#45;&gt;Node3</title>
<g id="a_edge2_Node000001_Node000003"><a xlink:title=" ">
<path fill="none" stroke="#63b8ff" d="M116.63,-21.44C125.05,-20.33 133.74,-19.18 142.23,-18.06"/>
<polygon fill="#63b8ff" stroke="#63b8ff" points="142.68,-21.53 152.14,-16.75 141.77,-14.59 142.68,-21.53"/>
</a>
</g>
</g>
</g>
</svg>
