<?xml version="1.0" encoding="UTF-8" standalone="no"?>
<!DOCTYPE svg PUBLIC "-//W3C//DTD SVG 1.1//EN"
 "http://www.w3.org/Graphics/SVG/1.1/DTD/svg11.dtd">
<!-- Generated by graphviz version 13.1.0 (20250701.0955)
 -->
<!-- Title: st7920_basic_init Pages: 1 -->
<svg width="272pt" height="970pt"
 viewBox="0.00 0.00 272.00 970.00" xmlns="http://www.w3.org/2000/svg" xmlns:xlink="http://www.w3.org/1999/xlink">
<g id="graph0" class="graph" transform="scale(1 1) rotate(0) translate(4 966)">
<title>st7920_basic_init</title>
<!-- Node1 -->
<g id="Node000001" class="node">
<title>Node1</title>
<g id="a_Node000001"><a xlink:title="basic example init">
<polygon fill="#999999" stroke="#666666" points="91.75,-491 0,-491 0,-471 91.75,-471 91.75,-491"/>
<text xml:space="preserve" text-anchor="middle" x="45.88" y="-477.5" font-family="Helvetica,sans-Serif" font-size="10.00">st7920_basic_init</text>
</a>
</g>
</g>
<!-- Node2 -->
<g id="Node000002" class="node">
<title>Node2</title>
<g id="a_Node000002"><a xlink:href="group__st7920__basic__driver.html#ga9ac309fec505b57e6360f4ca6d7281d5" target="_top" xlink:title="close the chip">
<polygon fill="white" stroke="#666666" points="232.62,-962 158.88,-962 158.88,-942 232.62,-942 232.62,-962"/>
<text xml:space="preserve" text-anchor="middle" x="195.75" y="-948.5" font-family="Helvetica,sans-Serif" font-size="10.00">st7920_deinit</text>
</a>
</g>
</g>
<!-- Node1&#45;&gt;Node2 -->
<g id="edge1_Node000001_Node000002" class="edge">
<title>Node1&#45;&gt;Node2</title>
<g id="a_edge1_Node000001_Node000002"><a xlink:title=" ">
<path fill="none" stroke="#63b8ff" d="M47.27,-491.14C49.83,-551.64 65.95,-864.74 127.75,-933 133.1,-938.91 140.14,-943.04 147.64,-945.9"/>
<polygon fill="#63b8ff" stroke="#63b8ff" points="146.39,-949.18 156.98,-948.74 148.43,-942.48 146.39,-949.18"/>
</a>
</g>
</g>
<!-- Node3 -->
<g id="Node000003" class="node">
<title>Node3</title>
<g id="a_Node000003"><a xlink:href="group__st7920__basic__driver.html#ga23c2f154b72222a831fb736ca33489a2" target="_top" xlink:title="clear the display">
<polygon fill="white" stroke="#666666" points="249.5,-924 142,-924 142,-904 249.5,-904 249.5,-924"/>
<text xml:space="preserve" text-anchor="middle" x="195.75" y="-910.5" font-family="Helvetica,sans-Serif" font-size="10.00">st7920_display_clear</text>
</a>
</g>
</g>
<!-- Node1&#45;&gt;Node3 -->
<g id="edge2_Node000001_Node000003" class="edge">
<title>Node1&#45;&gt;Node3</title>
<g id="a_edge2_Node000001_Node000003"><a xlink:title=" ">
<path fill="none" stroke="#63b8ff" d="M47.47,-491.4C50.97,-549.47 70.86,-833.15 127.75,-895 129.1,-896.47 130.56,-897.83 132.1,-899.08"/>
<polygon fill="#63b8ff" stroke="#63b8ff" points="130.12,-901.98 140.44,-904.4 133.89,-896.07 130.12,-901.98"/>
</a>
</g>
</g>
<!-- Node4 -->
<g id="Node000004" class="node">
<title>Node4</title>
<g id="a_Node000004"><a xlink:href="group__st7920__basic__driver.html#ga895c5b868cc81b2c08a3457329d63722" target="_top" xlink:title="initialize the chip">
<polygon fill="white" stroke="#666666" points="227.38,-886 164.12,-886 164.12,-866 227.38,-866 227.38,-886"/>
<text xml:space="preserve" text-anchor="middle" x="195.75" y="-872.5" font-family="Helvetica,sans-Serif" font-size="10.00">st7920_init</text>
</a>
</g>
</g>
<!-- Node1&#45;&gt;Node4 -->
<g id="edge3_Node000001_Node000004" class="edge">
<title>Node1&#45;&gt;Node4</title>
<g id="a_edge3_Node000001_Node000004"><a xlink:title=" ">
<path fill="none" stroke="#63b8ff" d="M47.67,-491.16C52.11,-545.49 75.57,-801.35 127.75,-857 134.41,-864.1 143.5,-868.61 152.84,-871.47"/>
<polygon fill="#63b8ff" stroke="#63b8ff" points="151.78,-874.81 162.32,-873.75 153.42,-868 151.78,-874.81"/>
</a>
</g>
</g>
<!-- Node5 -->
<g id="Node000005" class="node">
<title>Node5</title>
<g id="a_Node000005"><a xlink:href="group__st7920__interface__driver.html#ga4b7579dc316c4e1ab6a0461bf4d0e6af" target="_top" xlink:title="interface cs gpio deinit">
<polygon fill="white" stroke="#666666" points="247.62,-848 143.88,-848 143.88,-816 247.62,-816 247.62,-848"/>
<text xml:space="preserve" text-anchor="start" x="151.88" y="-834.5" font-family="Helvetica,sans-Serif" font-size="10.00">st7920_interface_cs</text>
<text xml:space="preserve" text-anchor="middle" x="195.75" y="-822.5" font-family="Helvetica,sans-Serif" font-size="10.00">_gpio_deinit</text>
</a>
</g>
</g>
<!-- Node1&#45;&gt;Node5 -->
<g id="edge4_Node000001_Node000005" class="edge">
<title>Node1&#45;&gt;Node5</title>
<g id="a_edge4_Node000001_Node000005"><a xlink:title=" ">
<path fill="none" stroke="#63b8ff" d="M48.14,-491.36C54.44,-541.4 83.89,-757.83 127.75,-807 129.67,-809.15 131.79,-811.11 134.05,-812.91"/>
<polygon fill="#63b8ff" stroke="#63b8ff" points="131.88,-815.67 142.17,-818.21 135.71,-809.81 131.88,-815.67"/>
</a>
</g>
</g>
<!-- Node6 -->
<g id="Node000006" class="node">
<title>Node6</title>
<g id="a_Node000006"><a xlink:href="group__st7920__interface__driver.html#gabe3ca5d3fee68d8f2af4ba504ff7dbc8" target="_top" xlink:title="interface cs gpio init">
<polygon fill="white" stroke="#666666" points="247.62,-798 143.88,-798 143.88,-766 247.62,-766 247.62,-798"/>
<text xml:space="preserve" text-anchor="start" x="151.88" y="-784.5" font-family="Helvetica,sans-Serif" font-size="10.00">st7920_interface_cs</text>
<text xml:space="preserve" text-anchor="middle" x="195.75" y="-772.5" font-family="Helvetica,sans-Serif" font-size="10.00">_gpio_init</text>
</a>
</g>
</g>
<!-- Node1&#45;&gt;Node6 -->
<g id="edge5_Node000001_Node000006" class="edge">
<title>Node1&#45;&gt;Node6</title>
<g id="a_edge5_Node000001_Node000006"><a xlink:title=" ">
<path fill="none" stroke="#63b8ff" d="M46.79,-491.34C47,-531.21 53.09,-676.76 127.75,-757 129.71,-759.11 131.87,-761.04 134.16,-762.81"/>
<polygon fill="#63b8ff" stroke="#63b8ff" points="132.05,-765.61 142.36,-768.04 135.82,-759.71 132.05,-765.61"/>
</a>
</g>
</g>
<!-- Node7 -->
<g id="Node000007" class="node">
<title>Node7</title>
<g id="a_Node000007"><a xlink:href="group__st7920__interface__driver.html#gaa3f048c0bc5112599d4f6c840219564a" target="_top" xlink:title="interface cs gpio write">
<polygon fill="white" stroke="#666666" points="247.62,-748 143.88,-748 143.88,-716 247.62,-716 247.62,-748"/>
<text xml:space="preserve" text-anchor="start" x="151.88" y="-734.5" font-family="Helvetica,sans-Serif" font-size="10.00">st7920_interface_cs</text>
<text xml:space="preserve" text-anchor="middle" x="195.75" y="-722.5" font-family="Helvetica,sans-Serif" font-size="10.00">_gpio_write</text>
</a>
</g>
</g>
<!-- Node1&#45;&gt;Node7 -->
<g id="edge6_Node000001_Node000007" class="edge">
<title>Node1&#45;&gt;Node7</title>
<g id="a_edge6_Node000001_Node000007"><a xlink:title=" ">
<path fill="none" stroke="#63b8ff" d="M47.57,-491.38C50.48,-526.62 64.68,-643.07 127.75,-707 129.73,-709.01 131.89,-710.86 134.18,-712.56"/>
<polygon fill="#63b8ff" stroke="#63b8ff" points="131.94,-715.29 142.27,-717.63 135.65,-709.36 131.94,-715.29"/>
</a>
</g>
</g>
<!-- Node8 -->
<g id="Node000008" class="node">
<title>Node8</title>
<g id="a_Node000008"><a xlink:href="group__st7920__interface__driver.html#ga2d87024aff3916e0580fcf0fb956e072" target="_top" xlink:title="interface print format data">
<polygon fill="white" stroke="#666666" points="255.5,-698 136,-698 136,-666 255.5,-666 255.5,-698"/>
<text xml:space="preserve" text-anchor="start" x="144" y="-684.5" font-family="Helvetica,sans-Serif" font-size="10.00">st7920_interface_debug</text>
<text xml:space="preserve" text-anchor="middle" x="195.75" y="-672.5" font-family="Helvetica,sans-Serif" font-size="10.00">_print</text>
</a>
</g>
</g>
<!-- Node1&#45;&gt;Node8 -->
<g id="edge7_Node000001_Node000008" class="edge">
<title>Node1&#45;&gt;Node8</title>
<g id="a_edge7_Node000001_Node000008"><a xlink:title=" ">
<path fill="none" stroke="#63b8ff" d="M48.76,-491.35C54.74,-521.29 76.01,-608.94 127.75,-657 128.53,-657.72 129.32,-658.42 130.14,-659.1"/>
<polygon fill="#63b8ff" stroke="#63b8ff" points="128.14,-661.97 138.35,-664.8 132.13,-656.22 128.14,-661.97"/>
</a>
</g>
</g>
<!-- Node9 -->
<g id="Node000009" class="node">
<title>Node9</title>
<g id="a_Node000009"><a xlink:href="group__st7920__interface__driver.html#gab853a4d4ec650b1cd1ef3bd81e1623eb" target="_top" xlink:title="interface delay ms">
<polygon fill="white" stroke="#666666" points="263.38,-648 128.12,-648 128.12,-628 263.38,-628 263.38,-648"/>
<text xml:space="preserve" text-anchor="middle" x="195.75" y="-634.5" font-family="Helvetica,sans-Serif" font-size="10.00">st7920_interface_delay_ms</text>
</a>
</g>
</g>
<!-- Node1&#45;&gt;Node9 -->
<g id="edge8_Node000001_Node000009" class="edge">
<title>Node1&#45;&gt;Node9</title>
<g id="a_edge8_Node000001_Node000009"><a xlink:title=" ">
<path fill="none" stroke="#63b8ff" d="M49.98,-491.48C58.19,-517.29 82.95,-584.33 127.75,-619 129.29,-620.2 130.91,-621.32 132.59,-622.37"/>
<polygon fill="#63b8ff" stroke="#63b8ff" points="130.86,-625.41 141.34,-626.94 134.1,-619.21 130.86,-625.41"/>
</a>
</g>
</g>
<!-- Node10 -->
<g id="Node000010" class="node">
<title>Node10</title>
<g id="a_Node000010"><a xlink:href="group__st7920__interface__driver.html#gae673e06966b80c448458477b344b518e" target="_top" xlink:title="interface delay us">
<polygon fill="white" stroke="#666666" points="261.88,-610 129.62,-610 129.62,-590 261.88,-590 261.88,-610"/>
<text xml:space="preserve" text-anchor="middle" x="195.75" y="-596.5" font-family="Helvetica,sans-Serif" font-size="10.00">st7920_interface_delay_us</text>
</a>
</g>
</g>
<!-- Node1&#45;&gt;Node10 -->
<g id="edge9_Node000001_Node000010" class="edge">
<title>Node1&#45;&gt;Node10</title>
<g id="a_edge9_Node000001_Node000010"><a xlink:title=" ">
<path fill="none" stroke="#63b8ff" d="M52.27,-491.24C63.51,-511.55 91.41,-557.01 127.75,-581 129.88,-582.41 132.12,-583.71 134.43,-584.92"/>
<polygon fill="#63b8ff" stroke="#63b8ff" points="132.98,-588.11 143.53,-589.01 135.85,-581.72 132.98,-588.11"/>
</a>
</g>
</g>
<!-- Node11 -->
<g id="Node000011" class="node">
<title>Node11</title>
<g id="a_Node000011"><a xlink:href="group__st7920__interface__driver.html#gad173bfa9af43525e004533b527cd8795" target="_top" xlink:title="interface sclk gpio deinit">
<polygon fill="white" stroke="#666666" points="251.38,-572 140.12,-572 140.12,-540 251.38,-540 251.38,-572"/>
<text xml:space="preserve" text-anchor="start" x="148.12" y="-558.5" font-family="Helvetica,sans-Serif" font-size="10.00">st7920_interface_sclk</text>
<text xml:space="preserve" text-anchor="middle" x="195.75" y="-546.5" font-family="Helvetica,sans-Serif" font-size="10.00">_gpio_deinit</text>
</a>
</g>
</g>
<!-- Node1&#45;&gt;Node11 -->
<g id="edge10_Node000001_Node000011" class="edge">
<title>Node1&#45;&gt;Node11</title>
<g id="a_edge10_Node000001_Node000011"><a xlink:title=" ">
<path fill="none" stroke="#63b8ff" d="M61.57,-491.32C77.41,-502.13 103.59,-519.16 127.75,-531 130.62,-532.41 133.6,-533.79 136.63,-535.13"/>
<polygon fill="#63b8ff" stroke="#63b8ff" points="135.07,-538.27 145.65,-538.93 137.79,-531.82 135.07,-538.27"/>
</a>
</g>
</g>
<!-- Node12 -->
<g id="Node000012" class="node">
<title>Node12</title>
<g id="a_Node000012"><a xlink:href="group__st7920__interface__driver.html#ga5239475548c929b8ec75cadd6492eb52" target="_top" xlink:title="interface sclk gpio init">
<polygon fill="white" stroke="#666666" points="251.38,-522 140.12,-522 140.12,-490 251.38,-490 251.38,-522"/>
<text xml:space="preserve" text-anchor="start" x="148.12" y="-508.5" font-family="Helvetica,sans-Serif" font-size="10.00">st7920_interface_sclk</text>
<text xml:space="preserve" text-anchor="middle" x="195.75" y="-496.5" font-family="Helvetica,sans-Serif" font-size="10.00">_gpio_init</text>
</a>
</g>
</g>
<!-- Node1&#45;&gt;Node12 -->
<g id="edge11_Node000001_Node000012" class="edge">
<title>Node1&#45;&gt;Node12</title>
<g id="a_edge11_Node000001_Node000012"><a xlink:title=" ">
<path fill="none" stroke="#63b8ff" d="M92.05,-488.64C103.56,-490.58 116.17,-492.71 128.49,-494.8"/>
<polygon fill="#63b8ff" stroke="#63b8ff" points="127.75,-498.22 138.2,-496.44 128.92,-491.32 127.75,-498.22"/>
</a>
</g>
</g>
<!-- Node13 -->
<g id="Node000013" class="node">
<title>Node13</title>
<g id="a_Node000013"><a xlink:href="group__st7920__interface__driver.html#ga471bb68239d51feebf85635de22361fe" target="_top" xlink:title="interface sclk gpio write">
<polygon fill="white" stroke="#666666" points="251.38,-472 140.12,-472 140.12,-440 251.38,-440 251.38,-472"/>
<text xml:space="preserve" text-anchor="start" x="148.12" y="-458.5" font-family="Helvetica,sans-Serif" font-size="10.00">st7920_interface_sclk</text>
<text xml:space="preserve" text-anchor="middle" x="195.75" y="-446.5" font-family="Helvetica,sans-Serif" font-size="10.00">_gpio_write</text>
</a>
</g>
</g>
<!-- Node1&#45;&gt;Node13 -->
<g id="edge12_Node000001_Node000013" class="edge">
<title>Node1&#45;&gt;Node13</title>
<g id="a_edge12_Node000001_Node000013"><a xlink:title=" ">
<path fill="none" stroke="#63b8ff" d="M92.05,-473.36C103.56,-471.42 116.17,-469.29 128.49,-467.2"/>
<polygon fill="#63b8ff" stroke="#63b8ff" points="128.92,-470.68 138.2,-465.56 127.75,-463.78 128.92,-470.68"/>
</a>
</g>
</g>
<!-- Node14 -->
<g id="Node000014" class="node">
<title>Node14</title>
<g id="a_Node000014"><a xlink:href="group__st7920__interface__driver.html#gafd3bf7bd7c8c35b525ae765a1a8f285a" target="_top" xlink:title="interface sid gpio deinit">
<polygon fill="white" stroke="#666666" points="248.75,-422 142.75,-422 142.75,-390 248.75,-390 248.75,-422"/>
<text xml:space="preserve" text-anchor="start" x="150.75" y="-408.5" font-family="Helvetica,sans-Serif" font-size="10.00">st7920_interface_sid</text>
<text xml:space="preserve" text-anchor="middle" x="195.75" y="-396.5" font-family="Helvetica,sans-Serif" font-size="10.00">_gpio_deinit</text>
</a>
</g>
</g>
<!-- Node1&#45;&gt;Node14 -->
<g id="edge13_Node000001_Node000014" class="edge">
<title>Node1&#45;&gt;Node14</title>
<g id="a_edge13_Node000001_Node000014"><a xlink:title=" ">
<path fill="none" stroke="#63b8ff" d="M61.57,-470.68C77.41,-459.87 103.59,-442.84 127.75,-431 130.62,-429.59 133.6,-428.21 136.63,-426.87"/>
<polygon fill="#63b8ff" stroke="#63b8ff" points="137.79,-430.18 145.65,-423.07 135.07,-423.73 137.79,-430.18"/>
</a>
</g>
</g>
<!-- Node15 -->
<g id="Node000015" class="node">
<title>Node15</title>
<g id="a_Node000015"><a xlink:href="group__st7920__interface__driver.html#gafbace90fd36dd1852a53ad26fe605593" target="_top" xlink:title="interface sid gpio init">
<polygon fill="white" stroke="#666666" points="248.75,-372 142.75,-372 142.75,-340 248.75,-340 248.75,-372"/>
<text xml:space="preserve" text-anchor="start" x="150.75" y="-358.5" font-family="Helvetica,sans-Serif" font-size="10.00">st7920_interface_sid</text>
<text xml:space="preserve" text-anchor="middle" x="195.75" y="-346.5" font-family="Helvetica,sans-Serif" font-size="10.00">_gpio_init</text>
</a>
</g>
</g>
<!-- Node1&#45;&gt;Node15 -->
<g id="edge14_Node000001_Node000015" class="edge">
<title>Node1&#45;&gt;Node15</title>
<g id="a_edge14_Node000001_Node000015"><a xlink:title=" ">
<path fill="none" stroke="#63b8ff" d="M52.62,-470.7C64.28,-450.69 92.59,-406.31 127.75,-381 129.31,-379.88 130.92,-378.8 132.58,-377.77"/>
<polygon fill="#63b8ff" stroke="#63b8ff" points="134.09,-380.93 141.15,-373.03 130.7,-374.81 134.09,-380.93"/>
</a>
</g>
</g>
<!-- Node16 -->
<g id="Node000016" class="node">
<title>Node16</title>
<g id="a_Node000016"><a xlink:href="group__st7920__interface__driver.html#gaa802c9d8550914ebc16c8c79414afc5c" target="_top" xlink:title="interface sid gpio write">
<polygon fill="white" stroke="#666666" points="248.75,-322 142.75,-322 142.75,-290 248.75,-290 248.75,-322"/>
<text xml:space="preserve" text-anchor="start" x="150.75" y="-308.5" font-family="Helvetica,sans-Serif" font-size="10.00">st7920_interface_sid</text>
<text xml:space="preserve" text-anchor="middle" x="195.75" y="-296.5" font-family="Helvetica,sans-Serif" font-size="10.00">_gpio_write</text>
</a>
</g>
</g>
<!-- Node1&#45;&gt;Node16 -->
<g id="edge15_Node000001_Node000016" class="edge">
<title>Node1&#45;&gt;Node16</title>
<g id="a_edge15_Node000001_Node000016"><a xlink:title=" ">
<path fill="none" stroke="#63b8ff" d="M49.67,-470.65C57.43,-443.77 81.8,-371.04 127.75,-331 129.4,-329.56 131.14,-328.2 132.95,-326.92"/>
<polygon fill="#63b8ff" stroke="#63b8ff" points="134.48,-330.09 141.2,-321.9 130.84,-324.11 134.48,-330.09"/>
</a>
</g>
</g>
<!-- Node17 -->
<g id="Node000017" class="node">
<title>Node17</title>
<g id="a_Node000017"><a xlink:href="group__st7920__basic__driver.html#ga4bda5e15c153e996214b63bfaad631d1" target="_top" xlink:title="return the home">
<polygon fill="white" stroke="#666666" points="248,-272 143.5,-272 143.5,-252 248,-252 248,-272"/>
<text xml:space="preserve" text-anchor="middle" x="195.75" y="-258.5" font-family="Helvetica,sans-Serif" font-size="10.00">st7920_return_home</text>
</a>
</g>
</g>
<!-- Node1&#45;&gt;Node17 -->
<g id="edge16_Node000001_Node000017" class="edge">
<title>Node1&#45;&gt;Node17</title>
<g id="a_edge16_Node000001_Node000017"><a xlink:title=" ">
<path fill="none" stroke="#63b8ff" d="M47.87,-470.94C51.66,-438.32 68.1,-334.54 127.75,-281 129.44,-279.49 131.24,-278.09 133.12,-276.81"/>
<polygon fill="#63b8ff" stroke="#63b8ff" points="134.77,-279.89 141.83,-272 131.39,-273.77 134.77,-279.89"/>
</a>
</g>
</g>
<!-- Node18 -->
<g id="Node000018" class="node">
<title>Node18</title>
<g id="a_Node000018"><a xlink:href="group__st7920__basic__driver.html#ga08c1300c82d7b47910b80451f8deff47" target="_top" xlink:title="set the cgram address">
<polygon fill="white" stroke="#666666" points="263.75,-234 127.75,-234 127.75,-214 263.75,-214 263.75,-234"/>
<text xml:space="preserve" text-anchor="middle" x="195.75" y="-220.5" font-family="Helvetica,sans-Serif" font-size="10.00">st7920_set_cgram_address</text>
</a>
</g>
</g>
<!-- Node1&#45;&gt;Node18 -->
<g id="edge17_Node000001_Node000018" class="edge">
<title>Node1&#45;&gt;Node18</title>
<g id="a_edge17_Node000001_Node000018"><a xlink:title=" ">
<path fill="none" stroke="#63b8ff" d="M47.15,-470.65C48.72,-433.88 59.09,-308.22 127.75,-243 128.65,-242.15 129.58,-241.33 130.55,-240.55"/>
<polygon fill="#63b8ff" stroke="#63b8ff" points="132.19,-243.66 138.69,-235.29 128.39,-237.78 132.19,-243.66"/>
</a>
</g>
</g>
<!-- Node19 -->
<g id="Node000019" class="node">
<title>Node19</title>
<g id="a_Node000019"><a xlink:href="group__st7920__basic__driver.html#gaa04e8a6bae4104ed921ea5365aebc7b8" target="_top" xlink:title="set the ddram address">
<polygon fill="white" stroke="#666666" points="263.75,-196 127.75,-196 127.75,-176 263.75,-176 263.75,-196"/>
<text xml:space="preserve" text-anchor="middle" x="195.75" y="-182.5" font-family="Helvetica,sans-Serif" font-size="10.00">st7920_set_ddram_address</text>
</a>
</g>
</g>
<!-- Node1&#45;&gt;Node19 -->
<g id="edge18_Node000001_Node000019" class="edge">
<title>Node1&#45;&gt;Node19</title>
<g id="a_edge18_Node000001_Node000019"><a xlink:title=" ">
<path fill="none" stroke="#63b8ff" d="M46.59,-470.75C46.08,-430.58 49.74,-282.34 127.75,-205 128.5,-204.26 129.28,-203.54 130.08,-202.85"/>
<polygon fill="#63b8ff" stroke="#63b8ff" points="131.91,-205.84 138.23,-197.33 127.99,-200.04 131.91,-205.84"/>
</a>
</g>
</g>
<!-- Node20 -->
<g id="Node000020" class="node">
<title>Node20</title>
<g id="a_Node000020"><a xlink:href="group__st7920__basic__driver.html#gad5f70a6103e067a0f43a62e9618f2036" target="_top" xlink:title="set the display control">
<polygon fill="white" stroke="#666666" points="245.75,-158 145.75,-158 145.75,-126 245.75,-126 245.75,-158"/>
<text xml:space="preserve" text-anchor="start" x="153.75" y="-144.5" font-family="Helvetica,sans-Serif" font-size="10.00">st7920_set_display</text>
<text xml:space="preserve" text-anchor="middle" x="195.75" y="-132.5" font-family="Helvetica,sans-Serif" font-size="10.00">_control</text>
</a>
</g>
</g>
<!-- Node1&#45;&gt;Node20 -->
<g id="edge19_Node000001_Node000020" class="edge">
<title>Node1&#45;&gt;Node20</title>
<g id="a_edge19_Node000001_Node000020"><a xlink:title=" ">
<path fill="none" stroke="#63b8ff" d="M46.35,-470.77C44.72,-427.81 44.14,-259.89 127.75,-167 130.12,-164.36 132.8,-162 135.69,-159.89"/>
<polygon fill="#63b8ff" stroke="#63b8ff" points="137.46,-162.91 144.2,-154.74 133.83,-156.92 137.46,-162.91"/>
</a>
</g>
</g>
<!-- Node21 -->
<g id="Node000021" class="node">
<title>Node21</title>
<g id="a_Node000021"><a xlink:href="group__st7920__basic__driver.html#gaf1749037efe404e2234ec262ca7d5e6d" target="_top" xlink:title="set the display shift mode">
<polygon fill="white" stroke="#666666" points="245.75,-108 145.75,-108 145.75,-76 245.75,-76 245.75,-108"/>
<text xml:space="preserve" text-anchor="start" x="153.75" y="-94.5" font-family="Helvetica,sans-Serif" font-size="10.00">st7920_set_display</text>
<text xml:space="preserve" text-anchor="middle" x="195.75" y="-82.5" font-family="Helvetica,sans-Serif" font-size="10.00">_shift_mode</text>
</a>
</g>
</g>
<!-- Node1&#45;&gt;Node21 -->
<g id="edge20_Node000001_Node000021" class="edge">
<title>Node1&#45;&gt;Node21</title>
<g id="a_edge20_Node000001_Node000021"><a xlink:title=" ">
<path fill="none" stroke="#63b8ff" d="M47.86,-470.54C53.12,-416.83 79.41,-172.55 127.75,-117 130.08,-114.32 132.72,-111.93 135.58,-109.8"/>
<polygon fill="#63b8ff" stroke="#63b8ff" points="137.35,-112.82 144.04,-104.6 133.69,-106.86 137.35,-112.82"/>
</a>
</g>
</g>
<!-- Node22 -->
<g id="Node000022" class="node">
<title>Node22</title>
<g id="a_Node000022"><a xlink:href="group__st7920__basic__driver.html#ga2598f9fc0f532b1be81fa729816336cd" target="_top" xlink:title="set the entry mode">
<polygon fill="white" stroke="#666666" points="255.88,-58 135.62,-58 135.62,-38 255.88,-38 255.88,-58"/>
<text xml:space="preserve" text-anchor="middle" x="195.75" y="-44.5" font-family="Helvetica,sans-Serif" font-size="10.00">st7920_set_entry_mode</text>
</a>
</g>
</g>
<!-- Node1&#45;&gt;Node22 -->
<g id="edge21_Node000001_Node000022" class="edge">
<title>Node1&#45;&gt;Node22</title>
<g id="a_edge21_Node000001_Node000022"><a xlink:title=" ">
<path fill="none" stroke="#63b8ff" d="M47.47,-470.6C50.97,-412.53 70.86,-128.85 127.75,-67 128.35,-66.35 128.97,-65.72 129.61,-65.11"/>
<polygon fill="#63b8ff" stroke="#63b8ff" points="131.62,-67.97 137.6,-59.23 127.47,-62.33 131.62,-67.97"/>
</a>
</g>
</g>
<!-- Node23 -->
<g id="Node000023" class="node">
<title>Node23</title>
<g id="a_Node000023"><a xlink:href="group__st7920__basic__driver.html#ga0fc13c1c98b78f4f3a4a02f53515f58c" target="_top" xlink:title="set the function">
<polygon fill="white" stroke="#666666" points="247.62,-20 143.88,-20 143.88,0 247.62,0 247.62,-20"/>
<text xml:space="preserve" text-anchor="middle" x="195.75" y="-6.5" font-family="Helvetica,sans-Serif" font-size="10.00">st7920_set_function</text>
</a>
</g>
</g>
<!-- Node1&#45;&gt;Node23 -->
<g id="edge22_Node000001_Node000023" class="edge">
<title>Node1&#45;&gt;Node23</title>
<g id="a_edge22_Node000001_Node000023"><a xlink:title=" ">
<path fill="none" stroke="#63b8ff" d="M47.27,-470.86C49.83,-410.36 65.95,-97.26 127.75,-29 129.67,-26.88 131.8,-24.99 134.1,-23.31"/>
<polygon fill="#63b8ff" stroke="#63b8ff" points="135.42,-26.59 142.31,-18.54 131.91,-20.53 135.42,-26.59"/>
</a>
</g>
</g>
</g>
</svg>
