<?xml version="1.0" encoding="UTF-8" standalone="no"?>
<!DOCTYPE svg PUBLIC "-//W3C//DTD SVG 1.1//EN"
 "http://www.w3.org/Graphics/SVG/1.1/DTD/svg11.dtd">
<!-- Generated by graphviz version 13.1.0 (20250701.0955)
 -->
<!-- Title: st7920_basic_clear_image Pages: 1 -->
<svg width="253pt" height="78pt"
 viewBox="0.00 0.00 253.00 78.00" xmlns="http://www.w3.org/2000/svg" xmlns:xlink="http://www.w3.org/1999/xlink">
<g id="graph0" class="graph" transform="scale(1 1) rotate(0) translate(4 74)">
<title>st7920_basic_clear_image</title>
<!-- Node1 -->
<g id="Node000001" class="node">
<title>Node1</title>
<g id="a_Node000001"><a xlink:title="basic example clear image">
<polygon fill="#999999" stroke="#666666" points="100,-54 0,-54 0,-22 100,-22 100,-54"/>
<text xml:space="preserve" text-anchor="start" x="8" y="-40.5" font-family="Helvetica,sans-Serif" font-size="10.00">st7920_basic_clear</text>
<text xml:space="preserve" text-anchor="middle" x="50" y="-28.5" font-family="Helvetica,sans-Serif" font-size="10.00">_image</text>
</a>
</g>
</g>
<!-- Node2 -->
<g id="Node000002" class="node">
<title>Node2</title>
<g id="a_Node000002"><a xlink:href="group__st7920__basic__driver.html#ga23c2f154b72222a831fb736ca33489a2" target="_top" xlink:title="clear the display">
<polygon fill="white" stroke="#666666" points="244.25,-70 136.75,-70 136.75,-50 244.25,-50 244.25,-70"/>
<text xml:space="preserve" text-anchor="middle" x="190.5" y="-56.5" font-family="Helvetica,sans-Serif" font-size="10.00">st7920_display_clear</text>
</a>
</g>
</g>
<!-- Node1&#45;&gt;Node2 -->
<g id="edge1_Node000001_Node000002" class="edge">
<title>Node1&#45;&gt;Node2</title>
<g id="a_edge1_Node000001_Node000002"><a xlink:title=" ">
<path fill="none" stroke="#63b8ff" d="M100.22,-45.82C108.44,-47.12 117.07,-48.49 125.59,-49.85"/>
<polygon fill="#63b8ff" stroke="#63b8ff" points="124.76,-53.26 135.19,-51.37 125.86,-46.35 124.76,-53.26"/>
</a>
</g>
</g>
<!-- Node3 -->
<g id="Node000003" class="node">
<title>Node3</title>
<g id="a_Node000003"><a xlink:href="group__st7920__extended__driver.html#ga909f2d6844dd6b3d56d2cff64036af76" target="_top" xlink:title="set the extended function">
<polygon fill="white" stroke="#666666" points="245,-32 136,-32 136,0 245,0 245,-32"/>
<text xml:space="preserve" text-anchor="start" x="144" y="-18.5" font-family="Helvetica,sans-Serif" font-size="10.00">st7920_set_extended</text>
<text xml:space="preserve" text-anchor="middle" x="190.5" y="-6.5" font-family="Helvetica,sans-Serif" font-size="10.00">_function</text>
</a>
</g>
</g>
<!-- Node1&#45;&gt;Node3 -->
<g id="edge2_Node000001_Node000003" class="edge">
<title>Node1&#45;&gt;Node3</title>
<g id="a_edge2_Node000001_Node000003"><a xlink:title=" ">
<path fill="none" stroke="#63b8ff" d="M100.22,-30.18C108.13,-28.93 116.42,-27.61 124.63,-26.3"/>
<polygon fill="#63b8ff" stroke="#63b8ff" points="124.91,-29.8 134.24,-24.78 123.82,-22.89 124.91,-29.8"/>
</a>
</g>
</g>
</g>
</svg>
