<?xml version="1.0" encoding="UTF-8" standalone="no"?>
<!DOCTYPE svg PUBLIC "-//W3C//DTD SVG 1.1//EN"
 "http://www.w3.org/Graphics/SVG/1.1/DTD/svg11.dtd">
<!-- Generated by graphviz version 13.1.0 (20250701.0955)
 -->
<!-- Title: st7920_advance_clear_string Pages: 1 -->
<svg width="265pt" height="66pt"
 viewBox="0.00 0.00 265.00 66.00" xmlns="http://www.w3.org/2000/svg" xmlns:xlink="http://www.w3.org/1999/xlink">
<g id="graph0" class="graph" transform="scale(1 1) rotate(0) translate(4 62)">
<title>st7920_advance_clear_string</title>
<!-- Node1 -->
<g id="Node000001" class="node">
<title>Node1</title>
<g id="a_Node000001"><a xlink:title="advance example clear string">
<polygon fill="#999999" stroke="#666666" points="113.5,-45 0,-45 0,-13 113.5,-13 113.5,-45"/>
<text xml:space="preserve" text-anchor="start" x="8" y="-31.5" font-family="Helvetica,sans-Serif" font-size="10.00">st7920_advance_clear</text>
<text xml:space="preserve" text-anchor="middle" x="56.75" y="-19.5" font-family="Helvetica,sans-Serif" font-size="10.00">_string</text>
</a>
</g>
</g>
<!-- Node2 -->
<g id="Node000002" class="node">
<title>Node2</title>
<g id="a_Node000002"><a xlink:href="group__st7920__basic__driver.html#ga23c2f154b72222a831fb736ca33489a2" target="_top" xlink:title="clear the display">
<polygon fill="white" stroke="#666666" points="257,-58 149.5,-58 149.5,-38 257,-38 257,-58"/>
<text xml:space="preserve" text-anchor="middle" x="203.25" y="-44.5" font-family="Helvetica,sans-Serif" font-size="10.00">st7920_display_clear</text>
</a>
</g>
</g>
<!-- Node1&#45;&gt;Node2 -->
<g id="edge1_Node000001_Node000002" class="edge">
<title>Node1&#45;&gt;Node2</title>
<g id="a_edge1_Node000001_Node000002"><a xlink:title=" ">
<path fill="none" stroke="#63b8ff" d="M113.62,-36.35C121.61,-37.4 129.88,-38.48 138.01,-39.55"/>
<polygon fill="#63b8ff" stroke="#63b8ff" points="137.5,-43.02 147.88,-40.85 138.42,-36.08 137.5,-43.02"/>
</a>
</g>
</g>
<!-- Node3 -->
<g id="Node000003" class="node">
<title>Node3</title>
<g id="a_Node000003"><a xlink:href="group__st7920__basic__driver.html#ga0fc13c1c98b78f4f3a4a02f53515f58c" target="_top" xlink:title="set the function">
<polygon fill="white" stroke="#666666" points="255.12,-20 151.38,-20 151.38,0 255.12,0 255.12,-20"/>
<text xml:space="preserve" text-anchor="middle" x="203.25" y="-6.5" font-family="Helvetica,sans-Serif" font-size="10.00">st7920_set_function</text>
</a>
</g>
</g>
<!-- Node1&#45;&gt;Node3 -->
<g id="edge2_Node000001_Node000003" class="edge">
<title>Node1&#45;&gt;Node3</title>
<g id="a_edge2_Node000001_Node000003"><a xlink:title=" ">
<path fill="none" stroke="#63b8ff" d="M113.62,-21.65C122.23,-20.52 131.17,-19.35 139.92,-18.2"/>
<polygon fill="#63b8ff" stroke="#63b8ff" points="140.3,-21.68 149.76,-16.9 139.39,-14.74 140.3,-21.68"/>
</a>
</g>
</g>
</g>
</svg>
