<?xml version="1.0" encoding="UTF-8" standalone="no"?>
<!DOCTYPE svg PUBLIC "-//W3C//DTD SVG 1.1//EN"
 "http://www.w3.org/Graphics/SVG/1.1/DTD/svg11.dtd">
<!-- Generated by graphviz version 13.1.0 (20250701.0955)
 -->
<!-- Title: st7920_basic_write_point Pages: 1 -->
<svg width="253pt" height="78pt"
 viewBox="0.00 0.00 253.00 78.00" xmlns="http://www.w3.org/2000/svg" xmlns:xlink="http://www.w3.org/1999/xlink">
<g id="graph0" class="graph" transform="scale(1 1) rotate(0) translate(4 74)">
<title>st7920_basic_write_point</title>
<!-- Node1 -->
<g id="Node000001" class="node">
<title>Node1</title>
<g id="a_Node000001"><a xlink:title="basic example write a point">
<polygon fill="#999999" stroke="#666666" points="100,-48 0,-48 0,-16 100,-16 100,-48"/>
<text xml:space="preserve" text-anchor="start" x="8" y="-34.5" font-family="Helvetica,sans-Serif" font-size="10.00">st7920_basic_write</text>
<text xml:space="preserve" text-anchor="middle" x="50" y="-22.5" font-family="Helvetica,sans-Serif" font-size="10.00">_point</text>
</a>
</g>
</g>
<!-- Node2 -->
<g id="Node000002" class="node">
<title>Node2</title>
<g id="a_Node000002"><a xlink:href="group__st7920__extended__driver.html#ga909f2d6844dd6b3d56d2cff64036af76" target="_top" xlink:title="set the extended function">
<polygon fill="white" stroke="#666666" points="245,-70 136,-70 136,-38 245,-38 245,-70"/>
<text xml:space="preserve" text-anchor="start" x="144" y="-56.5" font-family="Helvetica,sans-Serif" font-size="10.00">st7920_set_extended</text>
<text xml:space="preserve" text-anchor="middle" x="190.5" y="-44.5" font-family="Helvetica,sans-Serif" font-size="10.00">_function</text>
</a>
</g>
</g>
<!-- Node1&#45;&gt;Node2 -->
<g id="edge1_Node000001_Node000002" class="edge">
<title>Node1&#45;&gt;Node2</title>
<g id="a_edge1_Node000001_Node000002"><a xlink:title=" ">
<path fill="none" stroke="#63b8ff" d="M100.22,-39.82C108.13,-41.07 116.42,-42.39 124.63,-43.7"/>
<polygon fill="#63b8ff" stroke="#63b8ff" points="123.82,-47.11 134.24,-45.22 124.91,-40.2 123.82,-47.11"/>
</a>
</g>
</g>
<!-- Node3 -->
<g id="Node000003" class="node">
<title>Node3</title>
<g id="a_Node000003"><a xlink:href="group__st7920__extended__driver.html#ga3b0c6f9e5f8002dc0809242d8726d3a8" target="_top" xlink:title="write a point">
<polygon fill="white" stroke="#666666" points="239.38,-20 141.62,-20 141.62,0 239.38,0 239.38,-20"/>
<text xml:space="preserve" text-anchor="middle" x="190.5" y="-6.5" font-family="Helvetica,sans-Serif" font-size="10.00">st7920_write_point</text>
</a>
</g>
</g>
<!-- Node1&#45;&gt;Node3 -->
<g id="edge2_Node000001_Node000003" class="edge">
<title>Node1&#45;&gt;Node3</title>
<g id="a_edge2_Node000001_Node000003"><a xlink:title=" ">
<path fill="none" stroke="#63b8ff" d="M100.22,-24.18C109.94,-22.64 120.23,-21 130.24,-19.41"/>
<polygon fill="#63b8ff" stroke="#63b8ff" points="130.55,-22.91 139.87,-17.88 129.45,-15.99 130.55,-22.91"/>
</a>
</g>
</g>
</g>
</svg>
