<?xml version="1.0" encoding="UTF-8" standalone="no"?>
<!DOCTYPE svg PUBLIC "-//W3C//DTD SVG 1.1//EN"
 "http://www.w3.org/Graphics/SVG/1.1/DTD/svg11.dtd">
<!-- Generated by graphviz version 13.1.0 (20250701.0955)
 -->
<!-- Title: st7920_advance_rect Pages: 1 -->
<svg width="262pt" height="78pt"
 viewBox="0.00 0.00 262.00 78.00" xmlns="http://www.w3.org/2000/svg" xmlns:xlink="http://www.w3.org/1999/xlink">
<g id="graph0" class="graph" transform="scale(1 1) rotate(0) translate(4 74)">
<title>st7920_advance_rect</title>
<!-- Node1 -->
<g id="Node000001" class="node">
<title>Node1</title>
<g id="a_Node000001"><a xlink:title="advance example fill a rectangle">
<polygon fill="#999999" stroke="#666666" points="109,-48 0,-48 0,-28 109,-28 109,-48"/>
<text xml:space="preserve" text-anchor="middle" x="54.5" y="-34.5" font-family="Helvetica,sans-Serif" font-size="10.00">st7920_advance_rect</text>
</a>
</g>
</g>
<!-- Node2 -->
<g id="Node000002" class="node">
<title>Node2</title>
<g id="a_Node000002"><a xlink:href="group__st7920__extended__driver.html#gaa088b92fa271967f6302ef6505c2465a" target="_top" xlink:title="fill a rectangle">
<polygon fill="white" stroke="#666666" points="240.5,-70 158.5,-70 158.5,-50 240.5,-50 240.5,-70"/>
<text xml:space="preserve" text-anchor="middle" x="199.5" y="-56.5" font-family="Helvetica,sans-Serif" font-size="10.00">st7920_fill_rect</text>
</a>
</g>
</g>
<!-- Node1&#45;&gt;Node2 -->
<g id="edge1_Node000001_Node000002" class="edge">
<title>Node1&#45;&gt;Node2</title>
<g id="a_edge1_Node000001_Node000002"><a xlink:title=" ">
<path fill="none" stroke="#63b8ff" d="M109.15,-46.25C121.65,-48.18 134.93,-50.22 147.32,-52.13"/>
<polygon fill="#63b8ff" stroke="#63b8ff" points="146.49,-55.54 156.9,-53.6 147.55,-48.62 146.49,-55.54"/>
</a>
</g>
</g>
<!-- Node3 -->
<g id="Node000003" class="node">
<title>Node3</title>
<g id="a_Node000003"><a xlink:href="group__st7920__extended__driver.html#ga909f2d6844dd6b3d56d2cff64036af76" target="_top" xlink:title="set the extended function">
<polygon fill="white" stroke="#666666" points="254,-32 145,-32 145,0 254,0 254,-32"/>
<text xml:space="preserve" text-anchor="start" x="153" y="-18.5" font-family="Helvetica,sans-Serif" font-size="10.00">st7920_set_extended</text>
<text xml:space="preserve" text-anchor="middle" x="199.5" y="-6.5" font-family="Helvetica,sans-Serif" font-size="10.00">_function</text>
</a>
</g>
</g>
<!-- Node1&#45;&gt;Node3 -->
<g id="edge2_Node000001_Node000003" class="edge">
<title>Node1&#45;&gt;Node3</title>
<g id="a_edge2_Node000001_Node000003"><a xlink:title=" ">
<path fill="none" stroke="#63b8ff" d="M109.15,-29.75C117.02,-28.54 125.19,-27.28 133.26,-26.04"/>
<polygon fill="#63b8ff" stroke="#63b8ff" points="133.7,-29.51 143.05,-24.53 132.63,-22.59 133.7,-29.51"/>
</a>
</g>
</g>
</g>
</svg>
