<?xml version="1.0" encoding="UTF-8" standalone="no"?>
<!DOCTYPE svg PUBLIC "-//W3C//DTD SVG 1.1//EN"
 "http://www.w3.org/Graphics/SVG/1.1/DTD/svg11.dtd">
<!-- Generated by graphviz version 13.1.0 (20250701.0955)
 -->
<!-- Title: st7920_advance_picture Pages: 1 -->
<svg width="275pt" height="78pt"
 viewBox="0.00 0.00 275.00 78.00" xmlns="http://www.w3.org/2000/svg" xmlns:xlink="http://www.w3.org/1999/xlink">
<g id="graph0" class="graph" transform="scale(1 1) rotate(0) translate(4 74)">
<title>st7920_advance_picture</title>
<!-- Node1 -->
<g id="Node000001" class="node">
<title>Node1</title>
<g id="a_Node000001"><a xlink:title="advance example draw a picture">
<polygon fill="#999999" stroke="#666666" points="121.75,-48 0,-48 0,-28 121.75,-28 121.75,-48"/>
<text xml:space="preserve" text-anchor="middle" x="60.88" y="-34.5" font-family="Helvetica,sans-Serif" font-size="10.00">st7920_advance_picture</text>
</a>
</g>
</g>
<!-- Node2 -->
<g id="Node000002" class="node">
<title>Node2</title>
<g id="a_Node000002"><a xlink:href="group__st7920__extended__driver.html#gaa0cba4ec75ee69c7bccdb0d744647e33" target="_top" xlink:title="draw a picture">
<polygon fill="white" stroke="#666666" points="265.25,-70 159.25,-70 159.25,-50 265.25,-50 265.25,-70"/>
<text xml:space="preserve" text-anchor="middle" x="212.25" y="-56.5" font-family="Helvetica,sans-Serif" font-size="10.00">st7920_draw_picture</text>
</a>
</g>
</g>
<!-- Node1&#45;&gt;Node2 -->
<g id="edge1_Node000001_Node000002" class="edge">
<title>Node1&#45;&gt;Node2</title>
<g id="a_edge1_Node000001_Node000002"><a xlink:title=" ">
<path fill="none" stroke="#63b8ff" d="M122.2,-46.88C130.55,-48.11 139.15,-49.38 147.56,-50.62"/>
<polygon fill="#63b8ff" stroke="#63b8ff" points="146.97,-54.07 157.37,-52.06 147.99,-47.14 146.97,-54.07"/>
</a>
</g>
</g>
<!-- Node3 -->
<g id="Node000003" class="node">
<title>Node3</title>
<g id="a_Node000003"><a xlink:href="group__st7920__extended__driver.html#ga909f2d6844dd6b3d56d2cff64036af76" target="_top" xlink:title="set the extended function">
<polygon fill="white" stroke="#666666" points="266.75,-32 157.75,-32 157.75,0 266.75,0 266.75,-32"/>
<text xml:space="preserve" text-anchor="start" x="165.75" y="-18.5" font-family="Helvetica,sans-Serif" font-size="10.00">st7920_set_extended</text>
<text xml:space="preserve" text-anchor="middle" x="212.25" y="-6.5" font-family="Helvetica,sans-Serif" font-size="10.00">_function</text>
</a>
</g>
</g>
<!-- Node1&#45;&gt;Node3 -->
<g id="edge2_Node000001_Node000003" class="edge">
<title>Node1&#45;&gt;Node3</title>
<g id="a_edge2_Node000001_Node000003"><a xlink:title=" ">
<path fill="none" stroke="#63b8ff" d="M122.2,-29.12C130.13,-27.95 138.28,-26.75 146.27,-25.57"/>
<polygon fill="#63b8ff" stroke="#63b8ff" points="146.56,-29.07 155.94,-24.15 145.54,-22.14 146.56,-29.07"/>
</a>
</g>
</g>
</g>
</svg>
