<?xml version="1.0" encoding="UTF-8" standalone="no"?>
<!DOCTYPE svg PUBLIC "-//W3C//DTD SVG 1.1//EN"
 "http://www.w3.org/Graphics/SVG/1.1/DTD/svg11.dtd">
<!-- Generated by graphviz version 13.1.0 (20250701.0955)
 -->
<!-- Title: st7920_basic_clear_string Pages: 1 -->
<svg width="252pt" height="66pt"
 viewBox="0.00 0.00 252.00 66.00" xmlns="http://www.w3.org/2000/svg" xmlns:xlink="http://www.w3.org/1999/xlink">
<g id="graph0" class="graph" transform="scale(1 1) rotate(0) translate(4 62)">
<title>st7920_basic_clear_string</title>
<!-- Node1 -->
<g id="Node000001" class="node">
<title>Node1</title>
<g id="a_Node000001"><a xlink:title="basic example clear string">
<polygon fill="#999999" stroke="#666666" points="100,-45 0,-45 0,-13 100,-13 100,-45"/>
<text xml:space="preserve" text-anchor="start" x="8" y="-31.5" font-family="Helvetica,sans-Serif" font-size="10.00">st7920_basic_clear</text>
<text xml:space="preserve" text-anchor="middle" x="50" y="-19.5" font-family="Helvetica,sans-Serif" font-size="10.00">_string</text>
</a>
</g>
</g>
<!-- Node2 -->
<g id="Node000002" class="node">
<title>Node2</title>
<g id="a_Node000002"><a xlink:href="group__st7920__basic__driver.html#ga23c2f154b72222a831fb736ca33489a2" target="_top" xlink:title="clear the display">
<polygon fill="white" stroke="#666666" points="243.5,-58 136,-58 136,-38 243.5,-38 243.5,-58"/>
<text xml:space="preserve" text-anchor="middle" x="189.75" y="-44.5" font-family="Helvetica,sans-Serif" font-size="10.00">st7920_display_clear</text>
</a>
</g>
</g>
<!-- Node1&#45;&gt;Node2 -->
<g id="edge1_Node000001_Node000002" class="edge">
<title>Node1&#45;&gt;Node2</title>
<g id="a_edge1_Node000001_Node000002"><a xlink:title=" ">
<path fill="none" stroke="#63b8ff" d="M100.34,-35.81C108.11,-36.88 116.23,-38 124.28,-39.11"/>
<polygon fill="#63b8ff" stroke="#63b8ff" points="123.67,-42.56 134.06,-40.46 124.63,-35.62 123.67,-42.56"/>
</a>
</g>
</g>
<!-- Node3 -->
<g id="Node000003" class="node">
<title>Node3</title>
<g id="a_Node000003"><a xlink:href="group__st7920__basic__driver.html#ga0fc13c1c98b78f4f3a4a02f53515f58c" target="_top" xlink:title="set the function">
<polygon fill="white" stroke="#666666" points="241.62,-20 137.88,-20 137.88,0 241.62,0 241.62,-20"/>
<text xml:space="preserve" text-anchor="middle" x="189.75" y="-6.5" font-family="Helvetica,sans-Serif" font-size="10.00">st7920_set_function</text>
</a>
</g>
</g>
<!-- Node1&#45;&gt;Node3 -->
<g id="edge2_Node000001_Node000003" class="edge">
<title>Node1&#45;&gt;Node3</title>
<g id="a_edge2_Node000001_Node000003"><a xlink:title=" ">
<path fill="none" stroke="#63b8ff" d="M100.34,-22.19C108.72,-21.04 117.51,-19.83 126.17,-18.63"/>
<polygon fill="#63b8ff" stroke="#63b8ff" points="126.5,-22.12 135.93,-17.29 125.55,-15.18 126.5,-22.12"/>
</a>
</g>
</g>
</g>
</svg>
