<?xml version="1.0" encoding="UTF-8" standalone="no"?>
<!DOCTYPE svg PUBLIC "-//W3C//DTD SVG 1.1//EN"
 "http://www.w3.org/Graphics/SVG/1.1/DTD/svg11.dtd">
<!-- Generated by graphviz version 13.1.0 (20250701.0955)
 -->
<!-- Title: st7920_advance_display_on Pages: 1 -->
<svg width="287pt" height="78pt"
 viewBox="0.00 0.00 287.00 78.00" xmlns="http://www.w3.org/2000/svg" xmlns:xlink="http://www.w3.org/1999/xlink">
<g id="graph0" class="graph" transform="scale(1 1) rotate(0) translate(4 74)">
<title>st7920_advance_display_on</title>
<!-- Node1 -->
<g id="Node000001" class="node">
<title>Node1</title>
<g id="a_Node000001"><a xlink:title="advance example display on">
<polygon fill="#999999" stroke="#666666" points="139,-42 0,-42 0,-22 139,-22 139,-42"/>
<text xml:space="preserve" text-anchor="middle" x="69.5" y="-28.5" font-family="Helvetica,sans-Serif" font-size="10.00">st7920_advance_display_on</text>
</a>
</g>
</g>
<!-- Node2 -->
<g id="Node000002" class="node">
<title>Node2</title>
<g id="a_Node000002"><a xlink:href="group__st7920__basic__driver.html#gad5f70a6103e067a0f43a62e9618f2036" target="_top" xlink:title="set the display control">
<polygon fill="white" stroke="#666666" points="276.88,-70 176.88,-70 176.88,-38 276.88,-38 276.88,-70"/>
<text xml:space="preserve" text-anchor="start" x="184.88" y="-56.5" font-family="Helvetica,sans-Serif" font-size="10.00">st7920_set_display</text>
<text xml:space="preserve" text-anchor="middle" x="226.88" y="-44.5" font-family="Helvetica,sans-Serif" font-size="10.00">_control</text>
</a>
</g>
</g>
<!-- Node1&#45;&gt;Node2 -->
<g id="edge1_Node000001_Node000002" class="edge">
<title>Node1&#45;&gt;Node2</title>
<g id="a_edge1_Node000001_Node000002"><a xlink:title=" ">
<path fill="none" stroke="#63b8ff" d="M139.1,-41.71C147.92,-42.96 156.9,-44.23 165.57,-45.46"/>
<polygon fill="#63b8ff" stroke="#63b8ff" points="164.86,-48.9 175.25,-46.83 165.84,-41.97 164.86,-48.9"/>
</a>
</g>
</g>
<!-- Node3 -->
<g id="Node000003" class="node">
<title>Node3</title>
<g id="a_Node000003"><a xlink:href="group__st7920__basic__driver.html#ga0fc13c1c98b78f4f3a4a02f53515f58c" target="_top" xlink:title="set the function">
<polygon fill="white" stroke="#666666" points="278.75,-20 175,-20 175,0 278.75,0 278.75,-20"/>
<text xml:space="preserve" text-anchor="middle" x="226.88" y="-6.5" font-family="Helvetica,sans-Serif" font-size="10.00">st7920_set_function</text>
</a>
</g>
</g>
<!-- Node1&#45;&gt;Node3 -->
<g id="edge2_Node000001_Node000003" class="edge">
<title>Node1&#45;&gt;Node3</title>
<g id="a_edge2_Node000001_Node000003"><a xlink:title=" ">
<path fill="none" stroke="#63b8ff" d="M139.1,-22.29C147.28,-21.13 155.59,-19.95 163.67,-18.81"/>
<polygon fill="#63b8ff" stroke="#63b8ff" points="164,-22.3 173.41,-17.43 163.01,-15.37 164,-22.3"/>
</a>
</g>
</g>
</g>
</svg>
