<?xml version="1.0" encoding="UTF-8" standalone="no"?>
<!DOCTYPE svg PUBLIC "-//W3C//DTD SVG 1.1//EN"
 "http://www.w3.org/Graphics/SVG/1.1/DTD/svg11.dtd">
<!-- Generated by graphviz version 13.1.0 (20250701.0955)
 -->
<!-- Title: st7920_advance_write_point Pages: 1 -->
<svg width="267pt" height="78pt"
 viewBox="0.00 0.00 267.00 78.00" xmlns="http://www.w3.org/2000/svg" xmlns:xlink="http://www.w3.org/1999/xlink">
<g id="graph0" class="graph" transform="scale(1 1) rotate(0) translate(4 74)">
<title>st7920_advance_write_point</title>
<!-- Node1 -->
<g id="Node000001" class="node">
<title>Node1</title>
<g id="a_Node000001"><a xlink:title="advance example write a point">
<polygon fill="#999999" stroke="#666666" points="113.5,-48 0,-48 0,-16 113.5,-16 113.5,-48"/>
<text xml:space="preserve" text-anchor="start" x="8" y="-34.5" font-family="Helvetica,sans-Serif" font-size="10.00">st7920_advance_write</text>
<text xml:space="preserve" text-anchor="middle" x="56.75" y="-22.5" font-family="Helvetica,sans-Serif" font-size="10.00">_point</text>
</a>
</g>
</g>
<!-- Node2 -->
<g id="Node000002" class="node">
<title>Node2</title>
<g id="a_Node000002"><a xlink:href="group__st7920__extended__driver.html#ga909f2d6844dd6b3d56d2cff64036af76" target="_top" xlink:title="set the extended function">
<polygon fill="white" stroke="#666666" points="258.5,-70 149.5,-70 149.5,-38 258.5,-38 258.5,-70"/>
<text xml:space="preserve" text-anchor="start" x="157.5" y="-56.5" font-family="Helvetica,sans-Serif" font-size="10.00">st7920_set_extended</text>
<text xml:space="preserve" text-anchor="middle" x="204" y="-44.5" font-family="Helvetica,sans-Serif" font-size="10.00">_function</text>
</a>
</g>
</g>
<!-- Node1&#45;&gt;Node2 -->
<g id="edge1_Node000001_Node000002" class="edge">
<title>Node1&#45;&gt;Node2</title>
<g id="a_edge1_Node000001_Node000002"><a xlink:title=" ">
<path fill="none" stroke="#63b8ff" d="M113.91,-40.51C121.83,-41.71 130.03,-42.95 138.1,-44.17"/>
<polygon fill="#63b8ff" stroke="#63b8ff" points="137.47,-47.61 147.88,-45.65 138.52,-40.69 137.47,-47.61"/>
</a>
</g>
</g>
<!-- Node3 -->
<g id="Node000003" class="node">
<title>Node3</title>
<g id="a_Node000003"><a xlink:href="group__st7920__extended__driver.html#ga3b0c6f9e5f8002dc0809242d8726d3a8" target="_top" xlink:title="write a point">
<polygon fill="white" stroke="#666666" points="252.88,-20 155.12,-20 155.12,0 252.88,0 252.88,-20"/>
<text xml:space="preserve" text-anchor="middle" x="204" y="-6.5" font-family="Helvetica,sans-Serif" font-size="10.00">st7920_write_point</text>
</a>
</g>
</g>
<!-- Node1&#45;&gt;Node3 -->
<g id="edge2_Node000001_Node000003" class="edge">
<title>Node1&#45;&gt;Node3</title>
<g id="a_edge2_Node000001_Node000003"><a xlink:title=" ">
<path fill="none" stroke="#63b8ff" d="M113.91,-23.49C123.66,-22.02 133.83,-20.48 143.67,-18.99"/>
<polygon fill="#63b8ff" stroke="#63b8ff" points="144.16,-22.45 153.52,-17.49 143.11,-15.53 144.16,-22.45"/>
</a>
</g>
</g>
</g>
</svg>
