<?xml version="1.0" encoding="UTF-8" standalone="no"?>
<!DOCTYPE svg PUBLIC "-//W3C//DTD SVG 1.1//EN"
 "http://www.w3.org/Graphics/SVG/1.1/DTD/svg11.dtd">
<!-- Generated by graphviz version 13.1.0 (20250701.0955)
 -->
<!-- Title: st7920_advance_init Pages: 1 -->
<svg width="285pt" height="970pt"
 viewBox="0.00 0.00 285.00 970.00" xmlns="http://www.w3.org/2000/svg" xmlns:xlink="http://www.w3.org/1999/xlink">
<g id="graph0" class="graph" transform="scale(1 1) rotate(0) translate(4 966)">
<title>st7920_advance_init</title>
<!-- Node1 -->
<g id="Node000001" class="node">
<title>Node1</title>
<g id="a_Node000001"><a xlink:title="advance example init">
<polygon fill="#999999" stroke="#666666" points="105.25,-491 0,-491 0,-471 105.25,-471 105.25,-491"/>
<text xml:space="preserve" text-anchor="middle" x="52.62" y="-477.5" font-family="Helvetica,sans-Serif" font-size="10.00">st7920_advance_init</text>
</a>
</g>
</g>
<!-- Node2 -->
<g id="Node000002" class="node">
<title>Node2</title>
<g id="a_Node000002"><a xlink:href="group__st7920__basic__driver.html#ga9ac309fec505b57e6360f4ca6d7281d5" target="_top" xlink:title="close the chip">
<polygon fill="white" stroke="#666666" points="246.12,-962 172.38,-962 172.38,-942 246.12,-942 246.12,-962"/>
<text xml:space="preserve" text-anchor="middle" x="209.25" y="-948.5" font-family="Helvetica,sans-Serif" font-size="10.00">st7920_deinit</text>
</a>
</g>
</g>
<!-- Node1&#45;&gt;Node2 -->
<g id="edge1_Node000001_Node000002" class="edge">
<title>Node1&#45;&gt;Node2</title>
<g id="a_edge1_Node000001_Node000002"><a xlink:title=" ">
<path fill="none" stroke="#63b8ff" d="M54.18,-491.14C57.71,-551.69 78.8,-865.01 141.25,-933 146.64,-938.87 153.7,-942.98 161.21,-945.84"/>
<polygon fill="#63b8ff" stroke="#63b8ff" points="159.97,-949.12 170.55,-948.67 162,-942.42 159.97,-949.12"/>
</a>
</g>
</g>
<!-- Node3 -->
<g id="Node000003" class="node">
<title>Node3</title>
<g id="a_Node000003"><a xlink:href="group__st7920__basic__driver.html#ga23c2f154b72222a831fb736ca33489a2" target="_top" xlink:title="clear the display">
<polygon fill="white" stroke="#666666" points="263,-924 155.5,-924 155.5,-904 263,-904 263,-924"/>
<text xml:space="preserve" text-anchor="middle" x="209.25" y="-910.5" font-family="Helvetica,sans-Serif" font-size="10.00">st7920_display_clear</text>
</a>
</g>
</g>
<!-- Node1&#45;&gt;Node3 -->
<g id="edge2_Node000001_Node000003" class="edge">
<title>Node1&#45;&gt;Node3</title>
<g id="a_edge2_Node000001_Node000003"><a xlink:title=" ">
<path fill="none" stroke="#63b8ff" d="M54.4,-491.41C58.91,-549.52 83.69,-833.4 141.25,-895 142.61,-896.46 144.08,-897.81 145.63,-899.05"/>
<polygon fill="#63b8ff" stroke="#63b8ff" points="143.68,-901.96 154,-904.34 147.41,-896.04 143.68,-901.96"/>
</a>
</g>
</g>
<!-- Node4 -->
<g id="Node000004" class="node">
<title>Node4</title>
<g id="a_Node000004"><a xlink:href="group__st7920__basic__driver.html#ga895c5b868cc81b2c08a3457329d63722" target="_top" xlink:title="initialize the chip">
<polygon fill="white" stroke="#666666" points="240.88,-886 177.62,-886 177.62,-866 240.88,-866 240.88,-886"/>
<text xml:space="preserve" text-anchor="middle" x="209.25" y="-872.5" font-family="Helvetica,sans-Serif" font-size="10.00">st7920_init</text>
</a>
</g>
</g>
<!-- Node1&#45;&gt;Node4 -->
<g id="edge3_Node000001_Node000004" class="edge">
<title>Node1&#45;&gt;Node4</title>
<g id="a_edge3_Node000001_Node000004"><a xlink:title=" ">
<path fill="none" stroke="#63b8ff" d="M54.61,-491.17C60.08,-545.54 88.4,-801.58 141.25,-857 147.97,-864.04 157.09,-868.54 166.43,-871.39"/>
<polygon fill="#63b8ff" stroke="#63b8ff" points="165.36,-874.73 175.9,-873.67 167,-867.92 165.36,-874.73"/>
</a>
</g>
</g>
<!-- Node5 -->
<g id="Node000005" class="node">
<title>Node5</title>
<g id="a_Node000005"><a xlink:href="group__st7920__interface__driver.html#ga4b7579dc316c4e1ab6a0461bf4d0e6af" target="_top" xlink:title="interface cs gpio deinit">
<polygon fill="white" stroke="#666666" points="261.12,-848 157.38,-848 157.38,-816 261.12,-816 261.12,-848"/>
<text xml:space="preserve" text-anchor="start" x="165.38" y="-834.5" font-family="Helvetica,sans-Serif" font-size="10.00">st7920_interface_cs</text>
<text xml:space="preserve" text-anchor="middle" x="209.25" y="-822.5" font-family="Helvetica,sans-Serif" font-size="10.00">_gpio_deinit</text>
</a>
</g>
</g>
<!-- Node1&#45;&gt;Node5 -->
<g id="edge4_Node000001_Node000005" class="edge">
<title>Node1&#45;&gt;Node5</title>
<g id="a_edge4_Node000001_Node000005"><a xlink:title=" ">
<path fill="none" stroke="#63b8ff" d="M53.23,-491.33C52.09,-535.49 53.5,-710.54 141.25,-807 143.19,-809.13 145.32,-811.08 147.61,-812.86"/>
<polygon fill="#63b8ff" stroke="#63b8ff" points="145.46,-815.64 155.76,-818.13 149.26,-809.76 145.46,-815.64"/>
</a>
</g>
</g>
<!-- Node6 -->
<g id="Node000006" class="node">
<title>Node6</title>
<g id="a_Node000006"><a xlink:href="group__st7920__interface__driver.html#gabe3ca5d3fee68d8f2af4ba504ff7dbc8" target="_top" xlink:title="interface cs gpio init">
<polygon fill="white" stroke="#666666" points="261.12,-798 157.38,-798 157.38,-766 261.12,-766 261.12,-798"/>
<text xml:space="preserve" text-anchor="start" x="165.38" y="-784.5" font-family="Helvetica,sans-Serif" font-size="10.00">st7920_interface_cs</text>
<text xml:space="preserve" text-anchor="middle" x="209.25" y="-772.5" font-family="Helvetica,sans-Serif" font-size="10.00">_gpio_init</text>
</a>
</g>
</g>
<!-- Node1&#45;&gt;Node6 -->
<g id="edge5_Node000001_Node000006" class="edge">
<title>Node1&#45;&gt;Node6</title>
<g id="a_edge5_Node000001_Node000006"><a xlink:title=" ">
<path fill="none" stroke="#63b8ff" d="M53.82,-491.36C55.14,-531.3 65.18,-677.06 141.25,-757 143.2,-759.05 145.33,-760.93 147.59,-762.65"/>
<polygon fill="#63b8ff" stroke="#63b8ff" points="145.31,-765.35 155.62,-767.77 149.07,-759.45 145.31,-765.35"/>
</a>
</g>
</g>
<!-- Node7 -->
<g id="Node000007" class="node">
<title>Node7</title>
<g id="a_Node000007"><a xlink:href="group__st7920__interface__driver.html#gaa3f048c0bc5112599d4f6c840219564a" target="_top" xlink:title="interface cs gpio write">
<polygon fill="white" stroke="#666666" points="261.12,-748 157.38,-748 157.38,-716 261.12,-716 261.12,-748"/>
<text xml:space="preserve" text-anchor="start" x="165.38" y="-734.5" font-family="Helvetica,sans-Serif" font-size="10.00">st7920_interface_cs</text>
<text xml:space="preserve" text-anchor="middle" x="209.25" y="-722.5" font-family="Helvetica,sans-Serif" font-size="10.00">_gpio_write</text>
</a>
</g>
</g>
<!-- Node1&#45;&gt;Node7 -->
<g id="edge6_Node000001_Node000007" class="edge">
<title>Node1&#45;&gt;Node7</title>
<g id="a_edge6_Node000001_Node000007"><a xlink:title=" ">
<path fill="none" stroke="#63b8ff" d="M54.66,-491.4C58.74,-526.69 76.72,-643.28 141.25,-707 143.26,-708.98 145.44,-710.81 147.75,-712.5"/>
<polygon fill="#63b8ff" stroke="#63b8ff" points="145.54,-715.25 155.88,-717.52 149.21,-709.29 145.54,-715.25"/>
</a>
</g>
</g>
<!-- Node8 -->
<g id="Node000008" class="node">
<title>Node8</title>
<g id="a_Node000008"><a xlink:href="group__st7920__interface__driver.html#ga2d87024aff3916e0580fcf0fb956e072" target="_top" xlink:title="interface print format data">
<polygon fill="white" stroke="#666666" points="269,-698 149.5,-698 149.5,-666 269,-666 269,-698"/>
<text xml:space="preserve" text-anchor="start" x="157.5" y="-684.5" font-family="Helvetica,sans-Serif" font-size="10.00">st7920_interface_debug</text>
<text xml:space="preserve" text-anchor="middle" x="209.25" y="-672.5" font-family="Helvetica,sans-Serif" font-size="10.00">_print</text>
</a>
</g>
</g>
<!-- Node1&#45;&gt;Node8 -->
<g id="edge7_Node000001_Node000008" class="edge">
<title>Node1&#45;&gt;Node8</title>
<g id="a_edge7_Node000001_Node000008"><a xlink:title=" ">
<path fill="none" stroke="#63b8ff" d="M55.94,-491.36C63.14,-521.33 87.98,-609.04 141.25,-657 142.15,-657.81 143.08,-658.59 144.03,-659.35"/>
<polygon fill="#63b8ff" stroke="#63b8ff" points="141.7,-662 151.94,-664.7 145.62,-656.2 141.7,-662"/>
</a>
</g>
</g>
<!-- Node9 -->
<g id="Node000009" class="node">
<title>Node9</title>
<g id="a_Node000009"><a xlink:href="group__st7920__interface__driver.html#gab853a4d4ec650b1cd1ef3bd81e1623eb" target="_top" xlink:title="interface delay ms">
<polygon fill="white" stroke="#666666" points="276.88,-648 141.62,-648 141.62,-628 276.88,-628 276.88,-648"/>
<text xml:space="preserve" text-anchor="middle" x="209.25" y="-634.5" font-family="Helvetica,sans-Serif" font-size="10.00">st7920_interface_delay_ms</text>
</a>
</g>
</g>
<!-- Node1&#45;&gt;Node9 -->
<g id="edge8_Node000001_Node000009" class="edge">
<title>Node1&#45;&gt;Node9</title>
<g id="a_edge8_Node000001_Node000009"><a xlink:title=" ">
<path fill="none" stroke="#63b8ff" d="M57.26,-491.48C66.75,-517.31 94.84,-584.39 141.25,-619 142.99,-620.3 144.83,-621.51 146.72,-622.64"/>
<polygon fill="#63b8ff" stroke="#63b8ff" points="144.79,-625.59 155.29,-626.94 147.93,-619.33 144.79,-625.59"/>
</a>
</g>
</g>
<!-- Node10 -->
<g id="Node000010" class="node">
<title>Node10</title>
<g id="a_Node000010"><a xlink:href="group__st7920__interface__driver.html#gae673e06966b80c448458477b344b518e" target="_top" xlink:title="interface delay us">
<polygon fill="white" stroke="#666666" points="275.38,-610 143.12,-610 143.12,-590 275.38,-590 275.38,-610"/>
<text xml:space="preserve" text-anchor="middle" x="209.25" y="-596.5" font-family="Helvetica,sans-Serif" font-size="10.00">st7920_interface_delay_us</text>
</a>
</g>
</g>
<!-- Node1&#45;&gt;Node10 -->
<g id="edge9_Node000001_Node000010" class="edge">
<title>Node1&#45;&gt;Node10</title>
<g id="a_edge9_Node000001_Node000010"><a xlink:title=" ">
<path fill="none" stroke="#63b8ff" d="M59.7,-491.23C72.28,-511.52 103.2,-556.95 141.25,-581 143.53,-582.44 145.93,-583.78 148.4,-585.02"/>
<polygon fill="#63b8ff" stroke="#63b8ff" points="146.94,-588.2 157.5,-588.96 149.72,-581.78 146.94,-588.2"/>
</a>
</g>
</g>
<!-- Node11 -->
<g id="Node000011" class="node">
<title>Node11</title>
<g id="a_Node000011"><a xlink:href="group__st7920__interface__driver.html#gad173bfa9af43525e004533b527cd8795" target="_top" xlink:title="interface sclk gpio deinit">
<polygon fill="white" stroke="#666666" points="264.88,-572 153.62,-572 153.62,-540 264.88,-540 264.88,-572"/>
<text xml:space="preserve" text-anchor="start" x="161.62" y="-558.5" font-family="Helvetica,sans-Serif" font-size="10.00">st7920_interface_sclk</text>
<text xml:space="preserve" text-anchor="middle" x="209.25" y="-546.5" font-family="Helvetica,sans-Serif" font-size="10.00">_gpio_deinit</text>
</a>
</g>
</g>
<!-- Node1&#45;&gt;Node11 -->
<g id="edge10_Node000001_Node000011" class="edge">
<title>Node1&#45;&gt;Node11</title>
<g id="a_edge10_Node000001_Node000011"><a xlink:title=" ">
<path fill="none" stroke="#63b8ff" d="M70,-491.41C87.29,-502.14 115.55,-518.97 141.25,-531 144.35,-532.45 147.57,-533.88 150.83,-535.28"/>
<polygon fill="#63b8ff" stroke="#63b8ff" points="149.37,-538.46 159.95,-539.03 152.04,-531.99 149.37,-538.46"/>
</a>
</g>
</g>
<!-- Node12 -->
<g id="Node000012" class="node">
<title>Node12</title>
<g id="a_Node000012"><a xlink:href="group__st7920__interface__driver.html#ga5239475548c929b8ec75cadd6492eb52" target="_top" xlink:title="interface sclk gpio init">
<polygon fill="white" stroke="#666666" points="264.88,-522 153.62,-522 153.62,-490 264.88,-490 264.88,-522"/>
<text xml:space="preserve" text-anchor="start" x="161.62" y="-508.5" font-family="Helvetica,sans-Serif" font-size="10.00">st7920_interface_sclk</text>
<text xml:space="preserve" text-anchor="middle" x="209.25" y="-496.5" font-family="Helvetica,sans-Serif" font-size="10.00">_gpio_init</text>
</a>
</g>
</g>
<!-- Node1&#45;&gt;Node12 -->
<g id="edge11_Node000001_Node000012" class="edge">
<title>Node1&#45;&gt;Node12</title>
<g id="a_edge11_Node000001_Node000012"><a xlink:title=" ">
<path fill="none" stroke="#63b8ff" d="M105.54,-489.39C117.3,-491.29 129.93,-493.34 142.19,-495.32"/>
<polygon fill="#63b8ff" stroke="#63b8ff" points="141.37,-498.73 151.8,-496.87 142.48,-491.82 141.37,-498.73"/>
</a>
</g>
</g>
<!-- Node13 -->
<g id="Node000013" class="node">
<title>Node13</title>
<g id="a_Node000013"><a xlink:href="group__st7920__interface__driver.html#ga471bb68239d51feebf85635de22361fe" target="_top" xlink:title="interface sclk gpio write">
<polygon fill="white" stroke="#666666" points="264.88,-472 153.62,-472 153.62,-440 264.88,-440 264.88,-472"/>
<text xml:space="preserve" text-anchor="start" x="161.62" y="-458.5" font-family="Helvetica,sans-Serif" font-size="10.00">st7920_interface_sclk</text>
<text xml:space="preserve" text-anchor="middle" x="209.25" y="-446.5" font-family="Helvetica,sans-Serif" font-size="10.00">_gpio_write</text>
</a>
</g>
</g>
<!-- Node1&#45;&gt;Node13 -->
<g id="edge12_Node000001_Node000013" class="edge">
<title>Node1&#45;&gt;Node13</title>
<g id="a_edge12_Node000001_Node000013"><a xlink:title=" ">
<path fill="none" stroke="#63b8ff" d="M105.54,-472.61C117.3,-470.71 129.93,-468.66 142.19,-466.68"/>
<polygon fill="#63b8ff" stroke="#63b8ff" points="142.48,-470.18 151.8,-465.13 141.37,-463.27 142.48,-470.18"/>
</a>
</g>
</g>
<!-- Node14 -->
<g id="Node000014" class="node">
<title>Node14</title>
<g id="a_Node000014"><a xlink:href="group__st7920__interface__driver.html#gafd3bf7bd7c8c35b525ae765a1a8f285a" target="_top" xlink:title="interface sid gpio deinit">
<polygon fill="white" stroke="#666666" points="262.25,-422 156.25,-422 156.25,-390 262.25,-390 262.25,-422"/>
<text xml:space="preserve" text-anchor="start" x="164.25" y="-408.5" font-family="Helvetica,sans-Serif" font-size="10.00">st7920_interface_sid</text>
<text xml:space="preserve" text-anchor="middle" x="209.25" y="-396.5" font-family="Helvetica,sans-Serif" font-size="10.00">_gpio_deinit</text>
</a>
</g>
</g>
<!-- Node1&#45;&gt;Node14 -->
<g id="edge13_Node000001_Node000014" class="edge">
<title>Node1&#45;&gt;Node14</title>
<g id="a_edge13_Node000001_Node000014"><a xlink:title=" ">
<path fill="none" stroke="#63b8ff" d="M70,-470.59C87.29,-459.86 115.55,-443.03 141.25,-431 144.35,-429.55 147.57,-428.12 150.83,-426.72"/>
<polygon fill="#63b8ff" stroke="#63b8ff" points="152.04,-430.01 159.95,-422.97 149.37,-423.54 152.04,-430.01"/>
</a>
</g>
</g>
<!-- Node15 -->
<g id="Node000015" class="node">
<title>Node15</title>
<g id="a_Node000015"><a xlink:href="group__st7920__interface__driver.html#gafbace90fd36dd1852a53ad26fe605593" target="_top" xlink:title="interface sid gpio init">
<polygon fill="white" stroke="#666666" points="262.25,-372 156.25,-372 156.25,-340 262.25,-340 262.25,-372"/>
<text xml:space="preserve" text-anchor="start" x="164.25" y="-358.5" font-family="Helvetica,sans-Serif" font-size="10.00">st7920_interface_sid</text>
<text xml:space="preserve" text-anchor="middle" x="209.25" y="-346.5" font-family="Helvetica,sans-Serif" font-size="10.00">_gpio_init</text>
</a>
</g>
</g>
<!-- Node1&#45;&gt;Node15 -->
<g id="edge14_Node000001_Node000015" class="edge">
<title>Node1&#45;&gt;Node15</title>
<g id="a_edge14_Node000001_Node000015"><a xlink:title=" ">
<path fill="none" stroke="#63b8ff" d="M60.07,-470.72C73.08,-450.75 104.4,-406.44 141.25,-381 142.83,-379.91 144.46,-378.86 146.14,-377.85"/>
<polygon fill="#63b8ff" stroke="#63b8ff" points="147.62,-381.02 154.77,-373.2 144.31,-374.86 147.62,-381.02"/>
</a>
</g>
</g>
<!-- Node16 -->
<g id="Node000016" class="node">
<title>Node16</title>
<g id="a_Node000016"><a xlink:href="group__st7920__interface__driver.html#gaa802c9d8550914ebc16c8c79414afc5c" target="_top" xlink:title="interface sid gpio write">
<polygon fill="white" stroke="#666666" points="262.25,-322 156.25,-322 156.25,-290 262.25,-290 262.25,-322"/>
<text xml:space="preserve" text-anchor="start" x="164.25" y="-308.5" font-family="Helvetica,sans-Serif" font-size="10.00">st7920_interface_sid</text>
<text xml:space="preserve" text-anchor="middle" x="209.25" y="-296.5" font-family="Helvetica,sans-Serif" font-size="10.00">_gpio_write</text>
</a>
</g>
</g>
<!-- Node1&#45;&gt;Node16 -->
<g id="edge15_Node000001_Node000016" class="edge">
<title>Node1&#45;&gt;Node16</title>
<g id="a_edge15_Node000001_Node000016"><a xlink:title=" ">
<path fill="none" stroke="#63b8ff" d="M56.91,-470.65C65.94,-443.76 93.72,-371.01 141.25,-331 142.75,-329.74 144.32,-328.53 145.95,-327.39"/>
<polygon fill="#63b8ff" stroke="#63b8ff" points="147.74,-330.4 154.49,-322.23 144.12,-324.41 147.74,-330.4"/>
</a>
</g>
</g>
<!-- Node17 -->
<g id="Node000017" class="node">
<title>Node17</title>
<g id="a_Node000017"><a xlink:href="group__st7920__basic__driver.html#ga4bda5e15c153e996214b63bfaad631d1" target="_top" xlink:title="return the home">
<polygon fill="white" stroke="#666666" points="261.5,-272 157,-272 157,-252 261.5,-252 261.5,-272"/>
<text xml:space="preserve" text-anchor="middle" x="209.25" y="-258.5" font-family="Helvetica,sans-Serif" font-size="10.00">st7920_return_home</text>
</a>
</g>
</g>
<!-- Node1&#45;&gt;Node17 -->
<g id="edge16_Node000001_Node000017" class="edge">
<title>Node1&#45;&gt;Node17</title>
<g id="a_edge16_Node000001_Node000017"><a xlink:title=" ">
<path fill="none" stroke="#63b8ff" d="M54.99,-470.92C59.96,-438.25 80.11,-334.31 141.25,-281 142.96,-279.51 144.78,-278.14 146.68,-276.87"/>
<polygon fill="#63b8ff" stroke="#63b8ff" points="148.32,-279.96 155.44,-272.11 144.98,-273.81 148.32,-279.96"/>
</a>
</g>
</g>
<!-- Node18 -->
<g id="Node000018" class="node">
<title>Node18</title>
<g id="a_Node000018"><a xlink:href="group__st7920__basic__driver.html#ga08c1300c82d7b47910b80451f8deff47" target="_top" xlink:title="set the cgram address">
<polygon fill="white" stroke="#666666" points="277.25,-234 141.25,-234 141.25,-214 277.25,-214 277.25,-234"/>
<text xml:space="preserve" text-anchor="middle" x="209.25" y="-220.5" font-family="Helvetica,sans-Serif" font-size="10.00">st7920_set_cgram_address</text>
</a>
</g>
</g>
<!-- Node1&#45;&gt;Node18 -->
<g id="edge17_Node000001_Node000018" class="edge">
<title>Node1&#45;&gt;Node18</title>
<g id="a_edge17_Node000001_Node000018"><a xlink:title=" ">
<path fill="none" stroke="#63b8ff" d="M54.23,-470.63C56.93,-433.79 71.16,-307.93 141.25,-243 142.18,-242.14 143.15,-241.31 144.15,-240.53"/>
<polygon fill="#63b8ff" stroke="#63b8ff" points="146,-243.5 152.6,-235.21 142.27,-237.57 146,-243.5"/>
</a>
</g>
</g>
<!-- Node19 -->
<g id="Node000019" class="node">
<title>Node19</title>
<g id="a_Node000019"><a xlink:href="group__st7920__basic__driver.html#gaa04e8a6bae4104ed921ea5365aebc7b8" target="_top" xlink:title="set the ddram address">
<polygon fill="white" stroke="#666666" points="277.25,-196 141.25,-196 141.25,-176 277.25,-176 277.25,-196"/>
<text xml:space="preserve" text-anchor="middle" x="209.25" y="-182.5" font-family="Helvetica,sans-Serif" font-size="10.00">st7920_set_ddram_address</text>
</a>
</g>
</g>
<!-- Node1&#45;&gt;Node19 -->
<g id="edge18_Node000001_Node000019" class="edge">
<title>Node1&#45;&gt;Node19</title>
<g id="a_edge18_Node000001_Node000019"><a xlink:title=" ">
<path fill="none" stroke="#63b8ff" d="M53.62,-470.73C54.2,-430.48 61.84,-281.98 141.25,-205 142.14,-204.14 143.07,-203.31 144.02,-202.53"/>
<polygon fill="#63b8ff" stroke="#63b8ff" points="145.67,-205.63 152.12,-197.22 141.84,-199.77 145.67,-205.63"/>
</a>
</g>
</g>
<!-- Node20 -->
<g id="Node000020" class="node">
<title>Node20</title>
<g id="a_Node000020"><a xlink:href="group__st7920__basic__driver.html#gad5f70a6103e067a0f43a62e9618f2036" target="_top" xlink:title="set the display control">
<polygon fill="white" stroke="#666666" points="259.25,-158 159.25,-158 159.25,-126 259.25,-126 259.25,-158"/>
<text xml:space="preserve" text-anchor="start" x="167.25" y="-144.5" font-family="Helvetica,sans-Serif" font-size="10.00">st7920_set_display</text>
<text xml:space="preserve" text-anchor="middle" x="209.25" y="-132.5" font-family="Helvetica,sans-Serif" font-size="10.00">_control</text>
</a>
</g>
</g>
<!-- Node1&#45;&gt;Node20 -->
<g id="edge19_Node000001_Node000020" class="edge">
<title>Node1&#45;&gt;Node20</title>
<g id="a_edge19_Node000001_Node000020"><a xlink:title=" ">
<path fill="none" stroke="#63b8ff" d="M53.35,-470.75C52.78,-427.71 56.26,-259.54 141.25,-167 143.61,-164.43 146.26,-162.12 149.1,-160.05"/>
<polygon fill="#63b8ff" stroke="#63b8ff" points="150.71,-163.17 157.46,-155 147.09,-157.18 150.71,-163.17"/>
</a>
</g>
</g>
<!-- Node21 -->
<g id="Node000021" class="node">
<title>Node21</title>
<g id="a_Node000021"><a xlink:href="group__st7920__basic__driver.html#gaf1749037efe404e2234ec262ca7d5e6d" target="_top" xlink:title="set the display shift mode">
<polygon fill="white" stroke="#666666" points="259.25,-108 159.25,-108 159.25,-76 259.25,-76 259.25,-108"/>
<text xml:space="preserve" text-anchor="start" x="167.25" y="-94.5" font-family="Helvetica,sans-Serif" font-size="10.00">st7920_set_display</text>
<text xml:space="preserve" text-anchor="middle" x="209.25" y="-82.5" font-family="Helvetica,sans-Serif" font-size="10.00">_shift_mode</text>
</a>
</g>
</g>
<!-- Node1&#45;&gt;Node21 -->
<g id="edge20_Node000001_Node000021" class="edge">
<title>Node1&#45;&gt;Node21</title>
<g id="a_edge20_Node000001_Node000021"><a xlink:title=" ">
<path fill="none" stroke="#63b8ff" d="M54.82,-470.53C61.13,-416.79 92.22,-172.34 141.25,-117 143.6,-114.34 146.27,-111.97 149.14,-109.85"/>
<polygon fill="#63b8ff" stroke="#63b8ff" points="150.91,-112.87 157.62,-104.68 147.26,-106.89 150.91,-112.87"/>
</a>
</g>
</g>
<!-- Node22 -->
<g id="Node000022" class="node">
<title>Node22</title>
<g id="a_Node000022"><a xlink:href="group__st7920__basic__driver.html#ga2598f9fc0f532b1be81fa729816336cd" target="_top" xlink:title="set the entry mode">
<polygon fill="white" stroke="#666666" points="269.38,-58 149.12,-58 149.12,-38 269.38,-38 269.38,-58"/>
<text xml:space="preserve" text-anchor="middle" x="209.25" y="-44.5" font-family="Helvetica,sans-Serif" font-size="10.00">st7920_set_entry_mode</text>
</a>
</g>
</g>
<!-- Node1&#45;&gt;Node22 -->
<g id="edge21_Node000001_Node000022" class="edge">
<title>Node1&#45;&gt;Node22</title>
<g id="a_edge21_Node000001_Node000022"><a xlink:title=" ">
<path fill="none" stroke="#63b8ff" d="M54.4,-470.59C58.91,-412.48 83.69,-128.6 141.25,-67 141.85,-66.35 142.48,-65.73 143.12,-65.13"/>
<polygon fill="#63b8ff" stroke="#63b8ff" points="145.13,-67.99 151.16,-59.28 141.01,-62.33 145.13,-67.99"/>
</a>
</g>
</g>
<!-- Node23 -->
<g id="Node000023" class="node">
<title>Node23</title>
<g id="a_Node000023"><a xlink:href="group__st7920__basic__driver.html#ga0fc13c1c98b78f4f3a4a02f53515f58c" target="_top" xlink:title="set the function">
<polygon fill="white" stroke="#666666" points="261.12,-20 157.38,-20 157.38,0 261.12,0 261.12,-20"/>
<text xml:space="preserve" text-anchor="middle" x="209.25" y="-6.5" font-family="Helvetica,sans-Serif" font-size="10.00">st7920_set_function</text>
</a>
</g>
</g>
<!-- Node1&#45;&gt;Node23 -->
<g id="edge22_Node000001_Node000023" class="edge">
<title>Node1&#45;&gt;Node23</title>
<g id="a_edge22_Node000001_Node000023"><a xlink:title=" ">
<path fill="none" stroke="#63b8ff" d="M54.18,-470.86C57.71,-410.31 78.8,-96.99 141.25,-29 143.18,-26.9 145.33,-25.02 147.63,-23.34"/>
<polygon fill="#63b8ff" stroke="#63b8ff" points="148.96,-26.62 155.87,-18.6 145.46,-20.56 148.96,-26.62"/>
</a>
</g>
</g>
</g>
</svg>
