<?xml version="1.0" encoding="UTF-8" standalone="no"?>
<!DOCTYPE svg PUBLIC "-//W3C//DTD SVG 1.1//EN"
 "http://www.w3.org/Graphics/SVG/1.1/DTD/svg11.dtd">
<!-- Generated by graphviz version 13.1.0 (20250701.0955)
 -->
<!-- Title: st7920_basic_picture Pages: 1 -->
<svg width="261pt" height="78pt"
 viewBox="0.00 0.00 261.00 78.00" xmlns="http://www.w3.org/2000/svg" xmlns:xlink="http://www.w3.org/1999/xlink">
<g id="graph0" class="graph" transform="scale(1 1) rotate(0) translate(4 74)">
<title>st7920_basic_picture</title>
<!-- Node1 -->
<g id="Node000001" class="node">
<title>Node1</title>
<g id="a_Node000001"><a xlink:title="basic example draw a picture">
<polygon fill="#999999" stroke="#666666" points="108.25,-48 0,-48 0,-28 108.25,-28 108.25,-48"/>
<text xml:space="preserve" text-anchor="middle" x="54.12" y="-34.5" font-family="Helvetica,sans-Serif" font-size="10.00">st7920_basic_picture</text>
</a>
</g>
</g>
<!-- Node2 -->
<g id="Node000002" class="node">
<title>Node2</title>
<g id="a_Node000002"><a xlink:href="group__st7920__extended__driver.html#gaa0cba4ec75ee69c7bccdb0d744647e33" target="_top" xlink:title="draw a picture">
<polygon fill="white" stroke="#666666" points="251.75,-70 145.75,-70 145.75,-50 251.75,-50 251.75,-70"/>
<text xml:space="preserve" text-anchor="middle" x="198.75" y="-56.5" font-family="Helvetica,sans-Serif" font-size="10.00">st7920_draw_picture</text>
</a>
</g>
</g>
<!-- Node1&#45;&gt;Node2 -->
<g id="edge1_Node000001_Node000002" class="edge">
<title>Node1&#45;&gt;Node2</title>
<g id="a_edge1_Node000001_Node000002"><a xlink:title=" ">
<path fill="none" stroke="#63b8ff" d="M108.64,-46.25C116.99,-47.54 125.7,-48.89 134.25,-50.2"/>
<polygon fill="#63b8ff" stroke="#63b8ff" points="133.44,-53.62 143.86,-51.69 134.51,-46.7 133.44,-53.62"/>
</a>
</g>
</g>
<!-- Node3 -->
<g id="Node000003" class="node">
<title>Node3</title>
<g id="a_Node000003"><a xlink:href="group__st7920__extended__driver.html#ga909f2d6844dd6b3d56d2cff64036af76" target="_top" xlink:title="set the extended function">
<polygon fill="white" stroke="#666666" points="253.25,-32 144.25,-32 144.25,0 253.25,0 253.25,-32"/>
<text xml:space="preserve" text-anchor="start" x="152.25" y="-18.5" font-family="Helvetica,sans-Serif" font-size="10.00">st7920_set_extended</text>
<text xml:space="preserve" text-anchor="middle" x="198.75" y="-6.5" font-family="Helvetica,sans-Serif" font-size="10.00">_function</text>
</a>
</g>
</g>
<!-- Node1&#45;&gt;Node3 -->
<g id="edge2_Node000001_Node000003" class="edge">
<title>Node1&#45;&gt;Node3</title>
<g id="a_edge2_Node000001_Node000003"><a xlink:title=" ">
<path fill="none" stroke="#63b8ff" d="M108.64,-29.75C116.48,-28.54 124.63,-27.28 132.68,-26.04"/>
<polygon fill="#63b8ff" stroke="#63b8ff" points="133.09,-29.52 142.44,-24.53 132.02,-22.6 133.09,-29.52"/>
</a>
</g>
</g>
</g>
</svg>
