<?xml version="1.0" encoding="UTF-8" standalone="no"?>
<!DOCTYPE svg PUBLIC "-//W3C//DTD SVG 1.1//EN"
 "http://www.w3.org/Graphics/SVG/1.1/DTD/svg11.dtd">
<!-- Generated by graphviz version 13.1.0 (20250701.0955)
 -->
<!-- Title: st7920_basic_compress_picture Pages: 1 -->
<svg width="285pt" height="90pt"
 viewBox="0.00 0.00 285.00 90.00" xmlns="http://www.w3.org/2000/svg" xmlns:xlink="http://www.w3.org/1999/xlink">
<g id="graph0" class="graph" transform="scale(1 1) rotate(0) translate(4 86)">
<title>st7920_basic_compress_picture</title>
<!-- Node1 -->
<g id="Node000001" class="node">
<title>Node1</title>
<g id="a_Node000001"><a xlink:title="basic example draw a compressed picture">
<polygon fill="#999999" stroke="#666666" points="121.75,-57 0,-57 0,-25 121.75,-25 121.75,-57"/>
<text xml:space="preserve" text-anchor="start" x="8" y="-43.5" font-family="Helvetica,sans-Serif" font-size="10.00">st7920_basic_compress</text>
<text xml:space="preserve" text-anchor="middle" x="60.88" y="-31.5" font-family="Helvetica,sans-Serif" font-size="10.00">_picture</text>
</a>
</g>
</g>
<!-- Node2 -->
<g id="Node000002" class="node">
<title>Node2</title>
<g id="a_Node000002"><a xlink:href="group__st7920__extended__driver.html#ga1bd33971bfaf3afc6ac3dbbf5e39c568" target="_top" xlink:title="draw a compressed picture">
<polygon fill="white" stroke="#666666" points="277.25,-82 157.75,-82 157.75,-50 277.25,-50 277.25,-82"/>
<text xml:space="preserve" text-anchor="start" x="165.75" y="-68.5" font-family="Helvetica,sans-Serif" font-size="10.00">st7920_draw_compress</text>
<text xml:space="preserve" text-anchor="middle" x="217.5" y="-56.5" font-family="Helvetica,sans-Serif" font-size="10.00">_picture</text>
</a>
</g>
</g>
<!-- Node1&#45;&gt;Node2 -->
<g id="edge1_Node000001_Node000002" class="edge">
<title>Node1&#45;&gt;Node2</title>
<g id="a_edge1_Node000001_Node000002"><a xlink:title=" ">
<path fill="none" stroke="#63b8ff" d="M122.1,-50.74C130,-52.01 138.14,-53.33 146.19,-54.63"/>
<polygon fill="#63b8ff" stroke="#63b8ff" points="145.53,-58.07 155.96,-56.21 146.65,-51.16 145.53,-58.07"/>
</a>
</g>
</g>
<!-- Node3 -->
<g id="Node000003" class="node">
<title>Node3</title>
<g id="a_Node000003"><a xlink:href="group__st7920__extended__driver.html#ga909f2d6844dd6b3d56d2cff64036af76" target="_top" xlink:title="set the extended function">
<polygon fill="white" stroke="#666666" points="272,-32 163,-32 163,0 272,0 272,-32"/>
<text xml:space="preserve" text-anchor="start" x="171" y="-18.5" font-family="Helvetica,sans-Serif" font-size="10.00">st7920_set_extended</text>
<text xml:space="preserve" text-anchor="middle" x="217.5" y="-6.5" font-family="Helvetica,sans-Serif" font-size="10.00">_function</text>
</a>
</g>
</g>
<!-- Node1&#45;&gt;Node3 -->
<g id="edge2_Node000001_Node000003" class="edge">
<title>Node1&#45;&gt;Node3</title>
<g id="a_edge2_Node000001_Node000003"><a xlink:title=" ">
<path fill="none" stroke="#63b8ff" d="M122.1,-31.26C131.73,-29.71 141.73,-28.09 151.47,-26.51"/>
<polygon fill="#63b8ff" stroke="#63b8ff" points="151.93,-29.99 161.24,-24.93 150.81,-23.08 151.93,-29.99"/>
</a>
</g>
</g>
</g>
</svg>
