<?xml version="1.0" encoding="UTF-8" standalone="no"?>
<!DOCTYPE svg PUBLIC "-//W3C//DTD SVG 1.1//EN"
 "http://www.w3.org/Graphics/SVG/1.1/DTD/svg11.dtd">
<!-- Generated by graphviz version 13.1.0 (20250701.0955)
 -->
<!-- Title: st7920_basic_rect Pages: 1 -->
<svg width="249pt" height="78pt"
 viewBox="0.00 0.00 249.00 78.00" xmlns="http://www.w3.org/2000/svg" xmlns:xlink="http://www.w3.org/1999/xlink">
<g id="graph0" class="graph" transform="scale(1 1) rotate(0) translate(4 74)">
<title>st7920_basic_rect</title>
<!-- Node1 -->
<g id="Node000001" class="node">
<title>Node1</title>
<g id="a_Node000001"><a xlink:title="basic example fill a rectangle">
<polygon fill="#999999" stroke="#666666" points="95.5,-48 0,-48 0,-28 95.5,-28 95.5,-48"/>
<text xml:space="preserve" text-anchor="middle" x="47.75" y="-34.5" font-family="Helvetica,sans-Serif" font-size="10.00">st7920_basic_rect</text>
</a>
</g>
</g>
<!-- Node2 -->
<g id="Node000002" class="node">
<title>Node2</title>
<g id="a_Node000002"><a xlink:href="group__st7920__extended__driver.html#gaa088b92fa271967f6302ef6505c2465a" target="_top" xlink:title="fill a rectangle">
<polygon fill="white" stroke="#666666" points="227,-70 145,-70 145,-50 227,-50 227,-70"/>
<text xml:space="preserve" text-anchor="middle" x="186" y="-56.5" font-family="Helvetica,sans-Serif" font-size="10.00">st7920_fill_rect</text>
</a>
</g>
</g>
<!-- Node1&#45;&gt;Node2 -->
<g id="edge1_Node000001_Node000002" class="edge">
<title>Node1&#45;&gt;Node2</title>
<g id="a_edge1_Node000001_Node000002"><a xlink:title=" ">
<path fill="none" stroke="#63b8ff" d="M95.64,-45.57C107.9,-47.55 121.18,-49.69 133.65,-51.71"/>
<polygon fill="#63b8ff" stroke="#63b8ff" points="132.91,-55.13 143.34,-53.27 134.03,-48.22 132.91,-55.13"/>
</a>
</g>
</g>
<!-- Node3 -->
<g id="Node000003" class="node">
<title>Node3</title>
<g id="a_Node000003"><a xlink:href="group__st7920__extended__driver.html#ga909f2d6844dd6b3d56d2cff64036af76" target="_top" xlink:title="set the extended function">
<polygon fill="white" stroke="#666666" points="240.5,-32 131.5,-32 131.5,0 240.5,0 240.5,-32"/>
<text xml:space="preserve" text-anchor="start" x="139.5" y="-18.5" font-family="Helvetica,sans-Serif" font-size="10.00">st7920_set_extended</text>
<text xml:space="preserve" text-anchor="middle" x="186" y="-6.5" font-family="Helvetica,sans-Serif" font-size="10.00">_function</text>
</a>
</g>
</g>
<!-- Node1&#45;&gt;Node3 -->
<g id="edge2_Node000001_Node000003" class="edge">
<title>Node1&#45;&gt;Node3</title>
<g id="a_edge2_Node000001_Node000003"><a xlink:title=" ">
<path fill="none" stroke="#63b8ff" d="M95.64,-30.43C103.58,-29.15 111.94,-27.8 120.24,-26.46"/>
<polygon fill="#63b8ff" stroke="#63b8ff" points="120.66,-29.93 129.98,-24.88 119.55,-23.02 120.66,-29.93"/>
</a>
</g>
</g>
</g>
</svg>
