<?xml version="1.0" encoding="UTF-8" standalone="no"?>
<!DOCTYPE svg PUBLIC "-//W3C//DTD SVG 1.1//EN"
 "http://www.w3.org/Graphics/SVG/1.1/DTD/svg11.dtd">
<!-- Generated by graphviz version 13.1.0 (20250701.0955)
 -->
<!-- Title: st7920_advance_disable_scroll Pages: 1 -->
<svg width="276pt" height="90pt"
 viewBox="0.00 0.00 276.00 90.00" xmlns="http://www.w3.org/2000/svg" xmlns:xlink="http://www.w3.org/1999/xlink">
<g id="graph0" class="graph" transform="scale(1 1) rotate(0) translate(4 86)">
<title>st7920_advance_disable_scroll</title>
<!-- Node1 -->
<g id="Node000001" class="node">
<title>Node1</title>
<g id="a_Node000001"><a xlink:title="advance example disable scroll">
<polygon fill="#999999" stroke="#666666" points="123.25,-57 0,-57 0,-25 123.25,-25 123.25,-57"/>
<text xml:space="preserve" text-anchor="start" x="8" y="-43.5" font-family="Helvetica,sans-Serif" font-size="10.00">st7920_advance_disable</text>
<text xml:space="preserve" text-anchor="middle" x="61.62" y="-31.5" font-family="Helvetica,sans-Serif" font-size="10.00">_scroll</text>
</a>
</g>
</g>
<!-- Node2 -->
<g id="Node000002" class="node">
<title>Node2</title>
<g id="a_Node000002"><a xlink:href="group__st7920__extended__driver.html#ga909f2d6844dd6b3d56d2cff64036af76" target="_top" xlink:title="set the extended function">
<polygon fill="white" stroke="#666666" points="268.25,-82 159.25,-82 159.25,-50 268.25,-50 268.25,-82"/>
<text xml:space="preserve" text-anchor="start" x="167.25" y="-68.5" font-family="Helvetica,sans-Serif" font-size="10.00">st7920_set_extended</text>
<text xml:space="preserve" text-anchor="middle" x="213.75" y="-56.5" font-family="Helvetica,sans-Serif" font-size="10.00">_function</text>
</a>
</g>
</g>
<!-- Node1&#45;&gt;Node2 -->
<g id="edge1_Node000001_Node000002" class="edge">
<title>Node1&#45;&gt;Node2</title>
<g id="a_edge1_Node000001_Node000002"><a xlink:title=" ">
<path fill="none" stroke="#63b8ff" d="M123.69,-51.17C131.63,-52.49 139.79,-53.85 147.8,-55.18"/>
<polygon fill="#63b8ff" stroke="#63b8ff" points="147.04,-58.61 157.48,-56.8 148.19,-51.7 147.04,-58.61"/>
</a>
</g>
</g>
<!-- Node3 -->
<g id="Node000003" class="node">
<title>Node3</title>
<g id="a_Node000003"><a xlink:href="group__st7920__extended__driver.html#ga70296c9c4840aa5d1279befb151dedbe" target="_top" xlink:title="set the vertical scroll">
<polygon fill="white" stroke="#666666" points="264.12,-32 163.38,-32 163.38,0 264.12,0 264.12,-32"/>
<text xml:space="preserve" text-anchor="start" x="171.38" y="-18.5" font-family="Helvetica,sans-Serif" font-size="10.00">st7920_set_vertical</text>
<text xml:space="preserve" text-anchor="middle" x="213.75" y="-6.5" font-family="Helvetica,sans-Serif" font-size="10.00">_scroll</text>
</a>
</g>
</g>
<!-- Node1&#45;&gt;Node3 -->
<g id="edge2_Node000001_Node000003" class="edge">
<title>Node1&#45;&gt;Node3</title>
<g id="a_edge2_Node000001_Node000003"><a xlink:title=" ">
<path fill="none" stroke="#63b8ff" d="M123.69,-30.83C133.04,-29.27 142.69,-27.67 152.03,-26.11"/>
<polygon fill="#63b8ff" stroke="#63b8ff" points="152.45,-29.59 161.74,-24.5 151.3,-22.69 152.45,-29.59"/>
</a>
</g>
</g>
</g>
</svg>
