<?xml version="1.0" encoding="UTF-8" standalone="no"?>
<!DOCTYPE svg PUBLIC "-//W3C//DTD SVG 1.1//EN"
 "http://www.w3.org/Graphics/SVG/1.1/DTD/svg11.dtd">
<!-- Generated by graphviz version 13.1.0 (20250701.0955)
 -->
<!-- Title: st7920_advance_clear_image Pages: 1 -->
<svg width="267pt" height="78pt"
 viewBox="0.00 0.00 267.00 78.00" xmlns="http://www.w3.org/2000/svg" xmlns:xlink="http://www.w3.org/1999/xlink">
<g id="graph0" class="graph" transform="scale(1 1) rotate(0) translate(4 74)">
<title>st7920_advance_clear_image</title>
<!-- Node1 -->
<g id="Node000001" class="node">
<title>Node1</title>
<g id="a_Node000001"><a xlink:title="advance example clear image">
<polygon fill="#999999" stroke="#666666" points="113.5,-54 0,-54 0,-22 113.5,-22 113.5,-54"/>
<text xml:space="preserve" text-anchor="start" x="8" y="-40.5" font-family="Helvetica,sans-Serif" font-size="10.00">st7920_advance_clear</text>
<text xml:space="preserve" text-anchor="middle" x="56.75" y="-28.5" font-family="Helvetica,sans-Serif" font-size="10.00">_image</text>
</a>
</g>
</g>
<!-- Node2 -->
<g id="Node000002" class="node">
<title>Node2</title>
<g id="a_Node000002"><a xlink:href="group__st7920__basic__driver.html#ga23c2f154b72222a831fb736ca33489a2" target="_top" xlink:title="clear the display">
<polygon fill="white" stroke="#666666" points="257.75,-70 150.25,-70 150.25,-50 257.75,-50 257.75,-70"/>
<text xml:space="preserve" text-anchor="middle" x="204" y="-56.5" font-family="Helvetica,sans-Serif" font-size="10.00">st7920_display_clear</text>
</a>
</g>
</g>
<!-- Node1&#45;&gt;Node2 -->
<g id="edge1_Node000001_Node000002" class="edge">
<title>Node1&#45;&gt;Node2</title>
<g id="a_edge1_Node000001_Node000002"><a xlink:title=" ">
<path fill="none" stroke="#63b8ff" d="M113.91,-46.51C122.03,-47.74 130.44,-49.01 138.71,-50.26"/>
<polygon fill="#63b8ff" stroke="#63b8ff" points="137.94,-53.69 148.36,-51.72 138.99,-46.77 137.94,-53.69"/>
</a>
</g>
</g>
<!-- Node3 -->
<g id="Node000003" class="node">
<title>Node3</title>
<g id="a_Node000003"><a xlink:href="group__st7920__extended__driver.html#ga909f2d6844dd6b3d56d2cff64036af76" target="_top" xlink:title="set the extended function">
<polygon fill="white" stroke="#666666" points="258.5,-32 149.5,-32 149.5,0 258.5,0 258.5,-32"/>
<text xml:space="preserve" text-anchor="start" x="157.5" y="-18.5" font-family="Helvetica,sans-Serif" font-size="10.00">st7920_set_extended</text>
<text xml:space="preserve" text-anchor="middle" x="204" y="-6.5" font-family="Helvetica,sans-Serif" font-size="10.00">_function</text>
</a>
</g>
</g>
<!-- Node1&#45;&gt;Node3 -->
<g id="edge2_Node000001_Node000003" class="edge">
<title>Node1&#45;&gt;Node3</title>
<g id="a_edge2_Node000001_Node000003"><a xlink:title=" ">
<path fill="none" stroke="#63b8ff" d="M113.91,-29.49C121.83,-28.29 130.03,-27.05 138.1,-25.83"/>
<polygon fill="#63b8ff" stroke="#63b8ff" points="138.52,-29.31 147.88,-24.35 137.47,-22.39 138.52,-29.31"/>
</a>
</g>
</g>
</g>
</svg>
