<?xml version="1.0" encoding="UTF-8" standalone="no"?>
<!DOCTYPE svg PUBLIC "-//W3C//DTD SVG 1.1//EN"
 "http://www.w3.org/Graphics/SVG/1.1/DTD/svg11.dtd">
<!-- Generated by graphviz version 13.1.0 (20250701.0955)
 -->
<!-- Title: st7920_advance_set_reverse_line Pages: 1 -->
<svg width="272pt" height="78pt"
 viewBox="0.00 0.00 272.00 78.00" xmlns="http://www.w3.org/2000/svg" xmlns:xlink="http://www.w3.org/1999/xlink">
<g id="graph0" class="graph" transform="scale(1 1) rotate(0) translate(4 74)">
<title>st7920_advance_set_reverse_line</title>
<!-- Node1 -->
<g id="Node000001" class="node">
<title>Node1</title>
<g id="a_Node000001"><a xlink:title="advance example set reverse line">
<polygon fill="#999999" stroke="#666666" points="106,-48 0,-48 0,-16 106,-16 106,-48"/>
<text xml:space="preserve" text-anchor="start" x="8" y="-34.5" font-family="Helvetica,sans-Serif" font-size="10.00">st7920_advance_set</text>
<text xml:space="preserve" text-anchor="middle" x="53" y="-22.5" font-family="Helvetica,sans-Serif" font-size="10.00">_reverse_line</text>
</a>
</g>
</g>
<!-- Node2 -->
<g id="Node000002" class="node">
<title>Node2</title>
<g id="a_Node000002"><a xlink:href="group__st7920__extended__driver.html#ga909f2d6844dd6b3d56d2cff64036af76" target="_top" xlink:title="set the extended function">
<polygon fill="white" stroke="#666666" points="257.38,-70 148.38,-70 148.38,-38 257.38,-38 257.38,-70"/>
<text xml:space="preserve" text-anchor="start" x="156.38" y="-56.5" font-family="Helvetica,sans-Serif" font-size="10.00">st7920_set_extended</text>
<text xml:space="preserve" text-anchor="middle" x="202.88" y="-44.5" font-family="Helvetica,sans-Serif" font-size="10.00">_function</text>
</a>
</g>
</g>
<!-- Node1&#45;&gt;Node2 -->
<g id="edge1_Node000001_Node000002" class="edge">
<title>Node1&#45;&gt;Node2</title>
<g id="a_edge1_Node000001_Node000002"><a xlink:title=" ">
<path fill="none" stroke="#63b8ff" d="M106.14,-39.76C115.98,-41.22 126.4,-42.77 136.59,-44.29"/>
<polygon fill="#63b8ff" stroke="#63b8ff" points="136.06,-47.75 146.46,-45.76 137.09,-40.82 136.06,-47.75"/>
</a>
</g>
</g>
<!-- Node3 -->
<g id="Node000003" class="node">
<title>Node3</title>
<g id="a_Node000003"><a xlink:href="group__st7920__extended__driver.html#ga4e3af4c3621cf344418079db536c4f52" target="_top" xlink:title="set the reverse line">
<polygon fill="white" stroke="#666666" points="263.75,-20 142,-20 142,0 263.75,0 263.75,-20"/>
<text xml:space="preserve" text-anchor="middle" x="202.88" y="-6.5" font-family="Helvetica,sans-Serif" font-size="10.00">st7920_set_reverse_line</text>
</a>
</g>
</g>
<!-- Node1&#45;&gt;Node3 -->
<g id="edge2_Node000001_Node000003" class="edge">
<title>Node1&#45;&gt;Node3</title>
<g id="a_edge2_Node000001_Node000003"><a xlink:title=" ">
<path fill="none" stroke="#63b8ff" d="M106.14,-24.24C114.02,-23.07 122.28,-21.84 130.49,-20.62"/>
<polygon fill="#63b8ff" stroke="#63b8ff" points="130.75,-24.12 140.12,-19.19 129.72,-17.2 130.75,-24.12"/>
</a>
</g>
</g>
</g>
</svg>
