<?xml version="1.0" encoding="UTF-8" standalone="no"?>
<!DOCTYPE svg PUBLIC "-//W3C//DTD SVG 1.1//EN"
 "http://www.w3.org/Graphics/SVG/1.1/DTD/svg11.dtd">
<!-- Generated by graphviz version 13.1.0 (20250701.0955)
 -->
<!-- Title: st7920 driver function Pages: 1 -->
<svg width="269pt" height="340pt"
 viewBox="0.00 0.00 269.00 340.00" xmlns="http://www.w3.org/2000/svg" xmlns:xlink="http://www.w3.org/1999/xlink">
<g id="graph0" class="graph" transform="scale(1 1) rotate(0) translate(4 336)">
<title>st7920 driver function</title>
<!-- Node3 -->
<g id="Node000003" class="node">
<title>Node3</title>
<g id="a_Node000003"><a xlink:href="group__st7920__basic__driver.html" target="_top" xlink:title="st7920 basic driver modules">
<polygon fill="white" stroke="#666666" points="252.5,-332 154,-332 154,-300 252.5,-300 252.5,-332"/>
<text xml:space="preserve" text-anchor="start" x="162" y="-318.5" font-family="Helvetica,sans-Serif" font-size="10.00">st7920 basic driver</text>
<text xml:space="preserve" text-anchor="middle" x="203.25" y="-306.5" font-family="Helvetica,sans-Serif" font-size="10.00"> function</text>
</a>
</g>
</g>
<!-- Node1 -->
<g id="Node000001" class="node">
<title>Node1</title>
<g id="a_Node000001"><a xlink:title="st7920 driver modules">
<polygon fill="#999999" stroke="#666666" points="109.75,-176 0,-176 0,-156 109.75,-156 109.75,-176"/>
<text xml:space="preserve" text-anchor="middle" x="54.88" y="-162.5" font-family="Helvetica,sans-Serif" font-size="10.00">st7920 driver function</text>
</a>
</g>
</g>
<!-- Node1&#45;&gt;Node3 -->
<g id="edge2" class="edge">
<title>Node1&#45;&gt;Node3</title>
<path fill="none" stroke="black" d="M66.07,-186.41C80.52,-213.5 109.28,-261.38 145.75,-291 149.66,-294.18 154.04,-297.03 158.59,-299.57"/>
<polygon fill="black" stroke="black" points="69.34,-185.1 61.63,-177.83 63.13,-188.32 69.34,-185.1"/>
</g>
<!-- Node7 -->
<g id="Node000007" class="node">
<title>Node7</title>
<g id="a_Node000007"><a xlink:href="group__st7920__example__driver.html" target="_top" xlink:title="st7920 example driver modules">
<polygon fill="white" stroke="#666666" points="259.25,-282 147.25,-282 147.25,-250 259.25,-250 259.25,-282"/>
<text xml:space="preserve" text-anchor="start" x="155.25" y="-268.5" font-family="Helvetica,sans-Serif" font-size="10.00">st7920 example driver</text>
<text xml:space="preserve" text-anchor="middle" x="203.25" y="-256.5" font-family="Helvetica,sans-Serif" font-size="10.00"> function</text>
</a>
</g>
</g>
<!-- Node1&#45;&gt;Node7 -->
<g id="edge6" class="edge">
<title>Node1&#45;&gt;Node7</title>
<path fill="none" stroke="black" d="M74.32,-184.05C91.7,-200.39 119,-224.38 145.75,-241 150.67,-244.06 156.03,-246.94 161.42,-249.58"/>
<polygon fill="black" stroke="black" points="76.93,-181.71 67.28,-177.33 72.09,-186.77 76.93,-181.71"/>
</g>
<!-- Node4 -->
<g id="Node000004" class="node">
<title>Node4</title>
<g id="a_Node000004"><a xlink:href="group__st7920__extended__driver.html" target="_top" xlink:title="st7920 extended driver modules">
<polygon fill="white" stroke="#666666" points="260.75,-232 145.75,-232 145.75,-200 260.75,-200 260.75,-232"/>
<text xml:space="preserve" text-anchor="start" x="153.75" y="-218.5" font-family="Helvetica,sans-Serif" font-size="10.00">st7920 extended driver</text>
<text xml:space="preserve" text-anchor="middle" x="203.25" y="-206.5" font-family="Helvetica,sans-Serif" font-size="10.00"> function</text>
</a>
</g>
</g>
<!-- Node1&#45;&gt;Node4 -->
<g id="edge3" class="edge">
<title>Node1&#45;&gt;Node4</title>
<path fill="none" stroke="black" d="M97.38,-180.18C115.02,-186.2 135.71,-193.27 154.03,-199.53"/>
<polygon fill="black" stroke="black" points="98.59,-176.89 87.99,-176.97 96.32,-183.52 98.59,-176.89"/>
</g>
<!-- Node5 -->
<g id="Node000005" class="node">
<title>Node5</title>
<g id="a_Node000005"><a xlink:href="group__st7920__extern__driver.html" target="_top" xlink:title="st7920 extern driver modules">
<polygon fill="white" stroke="#666666" points="254.38,-182 152.12,-182 152.12,-150 254.38,-150 254.38,-182"/>
<text xml:space="preserve" text-anchor="start" x="160.12" y="-168.5" font-family="Helvetica,sans-Serif" font-size="10.00">st7920 extern driver</text>
<text xml:space="preserve" text-anchor="middle" x="203.25" y="-156.5" font-family="Helvetica,sans-Serif" font-size="10.00"> function</text>
</a>
</g>
</g>
<!-- Node1&#45;&gt;Node5 -->
<g id="edge4" class="edge">
<title>Node1&#45;&gt;Node5</title>
<path fill="none" stroke="black" d="M121.36,-166C131.57,-166 141.97,-166 151.78,-166"/>
<polygon fill="black" stroke="black" points="121.48,-162.5 111.48,-166 121.48,-169.5 121.48,-162.5"/>
</g>
<!-- Node6 -->
<g id="Node000006" class="node">
<title>Node6</title>
<g id="a_Node000006"><a xlink:href="group__st7920__interface__driver.html" target="_top" xlink:title="st7920 interface driver modules">
<polygon fill="white" stroke="#666666" points="259.62,-132 146.88,-132 146.88,-100 259.62,-100 259.62,-132"/>
<text xml:space="preserve" text-anchor="start" x="154.88" y="-118.5" font-family="Helvetica,sans-Serif" font-size="10.00">st7920 interface driver</text>
<text xml:space="preserve" text-anchor="middle" x="203.25" y="-106.5" font-family="Helvetica,sans-Serif" font-size="10.00"> function</text>
</a>
</g>
</g>
<!-- Node1&#45;&gt;Node6 -->
<g id="edge5" class="edge">
<title>Node1&#45;&gt;Node6</title>
<path fill="none" stroke="black" d="M97.38,-151.82C115.02,-145.8 135.71,-138.73 154.03,-132.47"/>
<polygon fill="black" stroke="black" points="96.32,-148.48 87.99,-155.03 98.59,-155.11 96.32,-148.48"/>
</g>
<!-- Node2 -->
<g id="Node000002" class="node">
<title>Node2</title>
<g id="a_Node000002"><a xlink:href="group__st7920__link__driver.html" target="_top" xlink:title="st7920 link driver modules">
<polygon fill="white" stroke="#666666" points="248.38,-82 158.12,-82 158.12,-50 248.38,-50 248.38,-82"/>
<text xml:space="preserve" text-anchor="start" x="166.12" y="-68.5" font-family="Helvetica,sans-Serif" font-size="10.00">st7920 link driver</text>
<text xml:space="preserve" text-anchor="middle" x="203.25" y="-56.5" font-family="Helvetica,sans-Serif" font-size="10.00"> function</text>
</a>
</g>
</g>
<!-- Node1&#45;&gt;Node2 -->
<g id="edge1" class="edge">
<title>Node1&#45;&gt;Node2</title>
<path fill="none" stroke="black" d="M74.32,-147.95C91.7,-131.61 119,-107.62 145.75,-91 150.67,-87.94 156.03,-85.06 161.42,-82.42"/>
<polygon fill="black" stroke="black" points="72.09,-145.23 67.28,-154.67 76.93,-150.29 72.09,-145.23"/>
</g>
<!-- Node8 -->
<g id="Node000008" class="node">
<title>Node8</title>
<g id="a_Node000008"><a xlink:href="group__st7920__test__driver.html" target="_top" xlink:title="st7920 test driver modules">
<polygon fill="white" stroke="#666666" points="249.12,-32 157.38,-32 157.38,0 249.12,0 249.12,-32"/>
<text xml:space="preserve" text-anchor="start" x="165.38" y="-18.5" font-family="Helvetica,sans-Serif" font-size="10.00">st7920 test driver</text>
<text xml:space="preserve" text-anchor="middle" x="203.25" y="-6.5" font-family="Helvetica,sans-Serif" font-size="10.00"> function</text>
</a>
</g>
</g>
<!-- Node1&#45;&gt;Node8 -->
<g id="edge7" class="edge">
<title>Node1&#45;&gt;Node8</title>
<path fill="none" stroke="black" d="M66.07,-145.59C80.52,-118.5 109.28,-70.62 145.75,-41 149.66,-37.82 154.04,-34.97 158.59,-32.43"/>
<polygon fill="black" stroke="black" points="63.13,-143.68 61.63,-154.17 69.34,-146.9 63.13,-143.68"/>
</g>
</g>
</svg>
