<?xml version="1.0" encoding="UTF-8" standalone="no"?>
<!DOCTYPE svg PUBLIC "-//W3C//DTD SVG 1.1//EN"
 "http://www.w3.org/Graphics/SVG/1.1/DTD/svg11.dtd">
<!-- Generated by graphviz version 13.1.0 (20250701.0955)
 -->
<!-- Title: st7920_advance_set_scroll Pages: 1 -->
<svg width="282pt" height="78pt"
 viewBox="0.00 0.00 282.00 78.00" xmlns="http://www.w3.org/2000/svg" xmlns:xlink="http://www.w3.org/1999/xlink">
<g id="graph0" class="graph" transform="scale(1 1) rotate(0) translate(4 74)">
<title>st7920_advance_set_scroll</title>
<!-- Node1 -->
<g id="Node000001" class="node">
<title>Node1</title>
<g id="a_Node000001"><a xlink:title="advance example set scroll">
<polygon fill="#999999" stroke="#666666" points="106,-48 0,-48 0,-16 106,-16 106,-48"/>
<text xml:space="preserve" text-anchor="start" x="8" y="-34.5" font-family="Helvetica,sans-Serif" font-size="10.00">st7920_advance_set</text>
<text xml:space="preserve" text-anchor="middle" x="53" y="-22.5" font-family="Helvetica,sans-Serif" font-size="10.00">_scroll</text>
</a>
</g>
</g>
<!-- Node2 -->
<g id="Node000002" class="node">
<title>Node2</title>
<g id="a_Node000002"><a xlink:href="group__st7920__extended__driver.html#ga909f2d6844dd6b3d56d2cff64036af76" target="_top" xlink:title="set the extended function">
<polygon fill="white" stroke="#666666" points="262.62,-70 153.62,-70 153.62,-38 262.62,-38 262.62,-70"/>
<text xml:space="preserve" text-anchor="start" x="161.62" y="-56.5" font-family="Helvetica,sans-Serif" font-size="10.00">st7920_set_extended</text>
<text xml:space="preserve" text-anchor="middle" x="208.12" y="-44.5" font-family="Helvetica,sans-Serif" font-size="10.00">_function</text>
</a>
</g>
</g>
<!-- Node1&#45;&gt;Node2 -->
<g id="edge1_Node000001_Node000002" class="edge">
<title>Node1&#45;&gt;Node2</title>
<g id="a_edge1_Node000001_Node000002"><a xlink:title=" ">
<path fill="none" stroke="#63b8ff" d="M106.27,-39.51C117.76,-41.16 130.06,-42.93 141.99,-44.64"/>
<polygon fill="#63b8ff" stroke="#63b8ff" points="141.37,-48.09 151.77,-46.05 142.37,-41.16 141.37,-48.09"/>
</a>
</g>
</g>
<!-- Node3 -->
<g id="Node000003" class="node">
<title>Node3</title>
<g id="a_Node000003"><a xlink:href="group__st7920__extended__driver.html#gae48468bcdf371db014e8a548dd9190ac" target="_top" xlink:title="set the scroll address">
<polygon fill="white" stroke="#666666" points="274.25,-20 142,-20 142,0 274.25,0 274.25,-20"/>
<text xml:space="preserve" text-anchor="middle" x="208.12" y="-6.5" font-family="Helvetica,sans-Serif" font-size="10.00">st7920_set_scroll_address</text>
</a>
</g>
</g>
<!-- Node1&#45;&gt;Node3 -->
<g id="edge2_Node000001_Node000003" class="edge">
<title>Node1&#45;&gt;Node3</title>
<g id="a_edge2_Node000001_Node000003"><a xlink:title=" ">
<path fill="none" stroke="#63b8ff" d="M106.27,-24.49C114.07,-23.37 122.25,-22.19 130.43,-21.02"/>
<polygon fill="#63b8ff" stroke="#63b8ff" points="130.65,-24.52 140.05,-19.64 129.66,-17.59 130.65,-24.52"/>
</a>
</g>
</g>
</g>
</svg>
