<?xml version="1.0" encoding="UTF-8" standalone="no"?>
<!DOCTYPE svg PUBLIC "-//W3C//DTD SVG 1.1//EN"
 "http://www.w3.org/Graphics/SVG/1.1/DTD/svg11.dtd">
<!-- Generated by graphviz version 13.1.0 (20250701.0955)
 -->
<!-- Title: st7920_basic_string Pages: 1 -->
<svg width="251pt" height="66pt"
 viewBox="0.00 0.00 251.00 66.00" xmlns="http://www.w3.org/2000/svg" xmlns:xlink="http://www.w3.org/1999/xlink">
<g id="graph0" class="graph" transform="scale(1 1) rotate(0) translate(4 62)">
<title>st7920_basic_string</title>
<!-- Node1 -->
<g id="Node000001" class="node">
<title>Node1</title>
<g id="a_Node000001"><a xlink:title="basic example write a string">
<polygon fill="#999999" stroke="#666666" points="103,-39 0,-39 0,-19 103,-19 103,-39"/>
<text xml:space="preserve" text-anchor="middle" x="51.5" y="-25.5" font-family="Helvetica,sans-Serif" font-size="10.00">st7920_basic_string</text>
</a>
</g>
</g>
<!-- Node2 -->
<g id="Node000002" class="node">
<title>Node2</title>
<g id="a_Node000002"><a xlink:href="group__st7920__basic__driver.html#ga0fc13c1c98b78f4f3a4a02f53515f58c" target="_top" xlink:title="set the function">
<polygon fill="white" stroke="#666666" points="242.75,-58 139,-58 139,-38 242.75,-38 242.75,-58"/>
<text xml:space="preserve" text-anchor="middle" x="190.88" y="-44.5" font-family="Helvetica,sans-Serif" font-size="10.00">st7920_set_function</text>
</a>
</g>
</g>
<!-- Node1&#45;&gt;Node2 -->
<g id="edge1_Node000001_Node000002" class="edge">
<title>Node1&#45;&gt;Node2</title>
<g id="a_edge1_Node000001_Node000002"><a xlink:title=" ">
<path fill="none" stroke="#63b8ff" d="M103.26,-36.02C111.16,-37.11 119.4,-38.25 127.51,-39.37"/>
<polygon fill="#63b8ff" stroke="#63b8ff" points="126.98,-42.83 137.36,-40.74 127.94,-35.9 126.98,-42.83"/>
</a>
</g>
</g>
<!-- Node3 -->
<g id="Node000003" class="node">
<title>Node3</title>
<g id="a_Node000003"><a xlink:href="group__st7920__basic__driver.html#gadd144654f50c3bd75952d22f4a709f1b" target="_top" xlink:title="show a string">
<polygon fill="white" stroke="#666666" points="241.25,-20 140.5,-20 140.5,0 241.25,0 241.25,-20"/>
<text xml:space="preserve" text-anchor="middle" x="190.88" y="-6.5" font-family="Helvetica,sans-Serif" font-size="10.00">st7920_write_string</text>
</a>
</g>
</g>
<!-- Node1&#45;&gt;Node3 -->
<g id="edge2_Node000001_Node000003" class="edge">
<title>Node1&#45;&gt;Node3</title>
<g id="a_edge2_Node000001_Node000003"><a xlink:title=" ">
<path fill="none" stroke="#63b8ff" d="M103.26,-21.98C111.66,-20.82 120.44,-19.6 129.05,-18.41"/>
<polygon fill="#63b8ff" stroke="#63b8ff" points="129.31,-21.91 138.74,-17.07 128.35,-14.98 129.31,-21.91"/>
</a>
</g>
</g>
</g>
</svg>
