<?xml version="1.0" encoding="UTF-8" standalone="no"?>
<!DOCTYPE svg PUBLIC "-//W3C//DTD SVG 1.1//EN"
 "http://www.w3.org/Graphics/SVG/1.1/DTD/svg11.dtd">
<!-- Generated by graphviz version 13.1.0 (20250701.0955)
 -->
<!-- Title: st7920_basic_read_point Pages: 1 -->
<svg width="277pt" height="78pt"
 viewBox="0.00 0.00 277.00 78.00" xmlns="http://www.w3.org/2000/svg" xmlns:xlink="http://www.w3.org/1999/xlink">
<g id="graph0" class="graph" transform="scale(1 1) rotate(0) translate(4 74)">
<title>st7920_basic_read_point</title>
<!-- Node1 -->
<g id="Node000001" class="node">
<title>Node1</title>
<g id="a_Node000001"><a xlink:title="basic example read a point">
<polygon fill="#999999" stroke="#666666" points="124,-48 0,-48 0,-28 124,-28 124,-48"/>
<text xml:space="preserve" text-anchor="middle" x="62" y="-34.5" font-family="Helvetica,sans-Serif" font-size="10.00">st7920_basic_read_point</text>
</a>
</g>
</g>
<!-- Node2 -->
<g id="Node000002" class="node">
<title>Node2</title>
<g id="a_Node000002"><a xlink:href="group__st7920__extended__driver.html#gadca96d799646e89d6c14979d173fab36" target="_top" xlink:title="read a point">
<polygon fill="white" stroke="#666666" points="262.25,-70 166.75,-70 166.75,-50 262.25,-50 262.25,-70"/>
<text xml:space="preserve" text-anchor="middle" x="214.5" y="-56.5" font-family="Helvetica,sans-Serif" font-size="10.00">st7920_read_point</text>
</a>
</g>
</g>
<!-- Node1&#45;&gt;Node2 -->
<g id="edge1_Node000001_Node000002" class="edge">
<title>Node1&#45;&gt;Node2</title>
<g id="a_edge1_Node000001_Node000002"><a xlink:title=" ">
<path fill="none" stroke="#63b8ff" d="M124.21,-46.95C134.5,-48.45 145.15,-50.01 155.36,-51.5"/>
<polygon fill="#63b8ff" stroke="#63b8ff" points="154.76,-54.95 165.16,-52.93 155.77,-48.02 154.76,-54.95"/>
</a>
</g>
</g>
<!-- Node3 -->
<g id="Node000003" class="node">
<title>Node3</title>
<g id="a_Node000003"><a xlink:href="group__st7920__extended__driver.html#ga909f2d6844dd6b3d56d2cff64036af76" target="_top" xlink:title="set the extended function">
<polygon fill="white" stroke="#666666" points="269,-32 160,-32 160,0 269,0 269,-32"/>
<text xml:space="preserve" text-anchor="start" x="168" y="-18.5" font-family="Helvetica,sans-Serif" font-size="10.00">st7920_set_extended</text>
<text xml:space="preserve" text-anchor="middle" x="214.5" y="-6.5" font-family="Helvetica,sans-Serif" font-size="10.00">_function</text>
</a>
</g>
</g>
<!-- Node1&#45;&gt;Node3 -->
<g id="edge2_Node000001_Node000003" class="edge">
<title>Node1&#45;&gt;Node3</title>
<g id="a_edge2_Node000001_Node000003"><a xlink:title=" ">
<path fill="none" stroke="#63b8ff" d="M124.21,-29.05C132.18,-27.89 140.36,-26.69 148.39,-25.52"/>
<polygon fill="#63b8ff" stroke="#63b8ff" points="148.7,-29.01 158.09,-24.1 147.69,-22.08 148.7,-29.01"/>
</a>
</g>
</g>
</g>
</svg>
